<svg xmlns="http://www.w3.org/2000/svg" fill="none" viewBox="0 0 183 40">
  <path fill="url(#a)" d="M0 6a6 6 0 0 1 6-6h171a6 6 0 0 1 6 6v28a6 6 0 0 1-6 6H6a6 6 0 0 1-6-6V6Z"/>
  <path fill="#fff" d="M50.5 25c3.1 0 4.98-1.92 4.98-5.1 0-3.17-1.88-5.08-4.96-5.08h-3.64V25h3.61Zm-1.46-1.84v-6.5h1.37c1.9 0 2.92.98 2.92 3.24 0 2.27-1.01 3.26-2.93 3.26h-1.36Zm11.47 1.99c1.89 0 3.16-.92 3.46-2.34l-1.96-.13c-.21.58-.76.89-1.46.89-1.06 0-1.73-.7-1.73-1.84h5.2v-.59c0-2.6-1.58-3.88-3.6-3.88-2.24 0-3.7 1.6-3.7 3.96 0 2.42 1.44 3.93 3.8 3.93Zm-1.7-4.74c.05-.87.71-1.56 1.65-1.56.92 0 1.56.65 1.56 1.56h-3.2Zm6.59 7.45h2.12v-4.08h.06c.3.63.94 1.34 2.17 1.34 1.74 0 3.1-1.37 3.1-3.93 0-2.62-1.42-3.93-3.1-3.93-1.27 0-1.89.76-2.17 1.39h-.1v-1.29H65.4v10.5Zm2.07-6.68c0-1.36.58-2.23 1.6-2.23 1.06 0 1.61.9 1.61 2.23s-.56 2.26-1.6 2.26c-1.02 0-1.6-.9-1.6-2.26Zm8.9-6.36h-2.11V25h2.12V14.82Zm5.15 10.33c2.32 0 3.76-1.59 3.76-3.94 0-2.36-1.44-3.95-3.76-3.95-2.31 0-3.76 1.59-3.76 3.95 0 2.35 1.45 3.94 3.76 3.94Zm.01-1.64c-1.07 0-1.61-.98-1.61-2.31 0-1.34.54-2.32 1.61-2.32 1.05 0 1.6.98 1.6 2.32 0 1.33-.55 2.3-1.6 2.3Zm6.18 4.35c1.57 0 2.4-.8 2.84-2.03l2.97-8.46h-2.24l-1.6 5.6h-.08l-1.58-5.6h-2.23l2.74 7.85-.12.32c-.28.72-.81.75-1.56.52l-.48 1.58c.3.13.8.22 1.34.22Zm13.58-2.71c2.32 0 3.76-1.59 3.76-3.94 0-2.36-1.44-3.95-3.76-3.95s-3.76 1.59-3.76 3.95c0 2.35 1.44 3.94 3.76 3.94Zm.01-1.64c-1.07 0-1.61-.98-1.61-2.31 0-1.34.54-2.32 1.61-2.32 1.05 0 1.6.98 1.6 2.32 0 1.33-.55 2.3-1.6 2.3Zm7.25-2.92c0-.99.59-1.57 1.44-1.57s1.36.56 1.36 1.5V25h2.12v-4.86c0-1.78-1.05-2.88-2.64-2.88-1.13 0-1.95.56-2.3 1.45h-.08v-1.35h-2.02V25h2.11v-4.41Zm9.87 4.41h2.15v-3.6h1.57l1.93 3.6h2.38l-2.17-3.96c1.16-.5 1.8-1.5 1.8-2.9 0-2.02-1.33-3.32-3.65-3.32h-4.01V25Zm2.15-5.34v-3.08h1.45c1.24 0 1.84.55 1.84 1.56s-.6 1.52-1.83 1.52h-1.46Zm9.17 5.48c1.13 0 1.86-.49 2.23-1.2h.06V25h2.01v-5.15c0-1.82-1.54-2.59-3.24-2.59-1.83 0-3.03.88-3.33 2.27l1.96.16c.15-.5.6-.88 1.36-.88.72 0 1.13.36 1.13.99v.03c0 .5-.52.56-1.84.69-1.52.13-2.87.64-2.87 2.35 0 1.5 1.08 2.27 2.53 2.27Zm.6-1.46c-.64 0-1.11-.3-1.11-.88 0-.6.5-.9 1.24-1a5.1 5.1 0 0 0 1.47-.34v.81c0 .8-.66 1.41-1.6 1.41Zm5.34 1.32h2.12v-7.64h-2.12V25Zm1.07-8.62c.63 0 1.15-.48 1.15-1.07 0-.6-.52-1.07-1.15-1.07-.63 0-1.15.48-1.15 1.07 0 .59.52 1.07 1.15 1.07Zm4.87-1.56h-2.12V25h2.12V14.82Zm3.2 10.18h2.24l1.31-4.8h.1l1.3 4.8h2.25l2.07-7.64h-2.13l-1.17 5.1h-.06l-1.26-5.1h-2.1l-1.23 5.13h-.07l-1.19-5.13h-2.14l2.08 7.64Zm12.58.14c1.13 0 1.86-.49 2.23-1.2h.06V25h2.01v-5.15c0-1.82-1.54-2.59-3.24-2.59-1.83 0-3.03.88-3.33 2.27l1.96.16c.15-.5.6-.88 1.36-.88.72 0 1.13.36 1.13.99v.03c0 .5-.52.56-1.85.69-1.5.13-2.87.64-2.87 2.35 0 1.5 1.08 2.27 2.54 2.27Zm.6-1.46c-.65 0-1.11-.3-1.11-.88 0-.6.49-.9 1.24-1a5.09 5.09 0 0 0 1.47-.34v.81c0 .8-.66 1.41-1.6 1.41Zm6.38 4.18c1.57 0 2.4-.8 2.84-2.03l2.97-8.46h-2.24l-1.6 5.6h-.08l-1.58-5.6h-2.23l2.74 7.85-.12.32c-.28.72-.81.75-1.56.52l-.48 1.58c.3.13.8.22 1.34.22Z"/>
  <path fill="#fff" fill-rule="evenodd" d="M13.55 14.1a12 12 0 0 1 21.84 9.66H12.6a11.9 11.9 0 0 1-.45-1.89l.21 1h16.7c1.06 0 1.94-.54 2.34-1.45.45-1 .26-2.03-.4-2.93a16.2 16.2 0 0 0-2.7-2.96c-1.51-1.15-3.43-1.32-5-1.37l-.44-.01-.13-.01c-.63-.03-.97-.04-4.44-.04h-4.75Zm-1.52 5.38c.01-.4.05-.8.1-1.2h9.58v-1.22h-9.33v.02l-.22 1.06c.15-.99.42-1.93.8-2.82h5.34a100.54 100.54 0 0 1 5.15.06c2.08.05 3.72.1 6.55 3.76.09.1.17.22.24.34H12.03Zm1.48-5.3c-.2.37-.39.75-.55 1.14h-.01c.16-.39.35-.77.56-1.14Zm.04-.07Zm-1.51 6.6h18.34c-.14.52-.56.95-1.31.95H12.13a9.74 9.74 0 0 1-.1-.96Zm.58 3.07c.13.4.3.8.47 1.2h21.82a12 12 0 0 1-22.3-1.2Zm-.61-4v-.16.76-.16L12 20l.01-.23Z" clip-rule="evenodd"/>
  <path fill="url(#b)" fill-opacity=".1" fill-rule="evenodd" d="M13.55 14.1a12 12 0 0 1 21.84 9.66H12.6a11.9 11.9 0 0 1-.45-1.89l.21 1h16.7c1.06 0 1.94-.54 2.34-1.45.45-1 .26-2.03-.4-2.93a16.2 16.2 0 0 0-2.7-2.96c-1.51-1.15-3.43-1.32-5-1.37l-.44-.01-.13-.01c-.63-.03-.97-.04-4.44-.04h-4.75Zm-1.52 5.38c.01-.4.05-.8.1-1.2h9.58v-1.22h-9.33v.02l-.22 1.06c.15-.99.42-1.93.8-2.82h5.34a100.54 100.54 0 0 1 5.15.06c2.08.05 3.72.1 6.55 3.76.09.1.17.22.24.34H12.03Zm1.48-5.3c-.2.37-.39.75-.55 1.14h-.01c.16-.39.35-.77.56-1.14Zm.04-.07Zm-1.51 6.6h18.34c-.14.52-.56.95-1.31.95H12.13a9.74 9.74 0 0 1-.1-.96Zm.58 3.07c.13.4.3.8.47 1.2h21.82a12 12 0 0 1-22.3-1.2Zm-.61-4v-.16.76-.16L12 20l.01-.23Z" clip-rule="evenodd"/>
  <defs>
    <linearGradient id="a" x1="181" x2="26" y1="0" y2="37.5" gradientUnits="userSpaceOnUse">
      <stop stop-color="#B63BCE"/>
      <stop offset="1" stop-color="#5016A1"/>
    </linearGradient>
    <linearGradient id="b" x1="19.5" x2="19.5" y1="32" y2="8" gradientUnits="userSpaceOnUse">
      <stop stop-color="#5B1BA7"/>
      <stop offset="1" stop-color="#fff" stop-opacity="0"/>
    </linearGradient>
  </defs>
</svg>
