<svg width="14" height="14" viewBox="0 0 14 14" fill="none" xmlns="http://www.w3.org/2000/svg">
<path fill-rule="evenodd" clip-rule="evenodd" d="M1.75 1.5H12.25C12.3881 1.5 12.5 1.61193 12.5 1.75V12.25C12.5 12.3881 12.3881 12.5 12.25 12.5H1.75C1.61193 12.5 1.5 12.3881 1.5 12.25V1.75C1.5 1.61193 1.61193 1.5 1.75 1.5ZM12.25 0H1.75C0.7835 0 0 0.7835 0 1.75V12.25C0 13.2165 0.7835 14 1.75 14H12.25C13.2165 14 14 13.2165 14 12.25V1.75C14 0.7835 13.2165 0 12.25 0ZM10.25 7.75C10.6642 7.75 11 7.41421 11 7C11 6.58579 10.6642 6.25 10.25 6.25H3.75C3.33579 6.25 3 6.58579 3 7C3 7.41421 3.33579 7.75 3.75 7.75H10.25Z" fill="#D73A49"/>
</svg>
