<svg width="14" height="14" viewBox="0 0 14 14" fill="none" xmlns="http://www.w3.org/2000/svg">
<path fill-rule="evenodd" clip-rule="evenodd" d="M1.75 1.5H12.25C12.3881 1.5 12.5 1.61193 12.5 1.75V12.25C12.5 12.3881 12.3881 12.5 12.25 12.5H1.75C1.61193 12.5 1.5 12.3881 1.5 12.25V1.75C1.5 1.61193 1.61193 1.5 1.75 1.5ZM12.25 0H1.75C0.7835 0 0 0.7835 0 1.75V12.25C0 13.2165 0.7835 14 1.75 14H12.25C13.2165 14 14 13.2165 14 12.25V1.75C14 0.7835 13.2165 0 12.25 0ZM10.2803 4.78033C10.5732 4.48744 10.5732 4.01256 10.2803 3.71967C9.9874 3.42678 9.5126 3.42678 9.2197 3.71967L3.71967 9.2197C3.42678 9.5126 3.42678 9.9874 3.71967 10.2803C4.01256 10.5732 4.48744 10.5732 4.78033 10.2803L10.2803 4.78033Z" fill="#6A737D"/>
</svg>
