<svg width="20" height="20" viewBox="0 0 20 20" fill="none" xmlns="http://www.w3.org/2000/svg">
<path fill-rule="evenodd" clip-rule="evenodd" d="M7.75 7.5H18.25C18.3881 7.5 18.5 7.61193 18.5 7.75V18.25C18.5 18.3881 18.3881 18.5 18.25 18.5H7.75C7.61193 18.5 7.5 18.3881 7.5 18.25V7.75C7.5 7.61193 7.61193 7.5 7.75 7.5ZM18.25 6H7.75C6.7835 6 6 6.7835 6 7.75V18.25C6 19.2165 6.7835 20 7.75 20H18.25C19.2165 20 20 19.2165 20 18.25V7.75C20 6.7835 19.2165 6 18.25 6ZM13 15C14.1046 15 15 14.1046 15 13C15 11.8954 14.1046 11 13 11C11.8954 11 11 11.8954 11 13C11 14.1046 11.8954 15 13 15Z" fill="#F9C513"/>
<path d="M12.25 1.5H1.75C1.61193 1.5 1.5 1.61193 1.5 1.75V12.25C1.5 12.3881 1.61193 12.5 1.75 12.5H2V14H1.75C0.7835 14 0 13.2165 0 12.25V1.75C0 0.7835 0.7835 0 1.75 0H12.25C13.2165 0 14 0.7835 14 1.75V2H12.5V1.75C12.5 1.61193 12.3881 1.5 12.25 1.5Z" fill="#F9C513"/>
<path d="M15.25 4.5H4.75C4.61193 4.5 4.5 4.61193 4.5 4.75V15.25C4.5 15.3881 4.61193 15.5 4.75 15.5H5V17H4.75C3.7835 17 3 16.2165 3 15.25V4.75C3 3.7835 3.7835 3 4.75 3H15.25C16.2165 3 17 3.7835 17 4.75V5H15.5V4.75C15.5 4.61193 15.3881 4.5 15.25 4.5Z" fill="#F9C513"/>
</svg>
