<svg width="14" height="14" viewBox="0 0 14 14" fill="none" xmlns="http://www.w3.org/2000/svg">
<path fill-rule="evenodd" clip-rule="evenodd" d="M1.75 1.5H12.25C12.3881 1.5 12.5 1.61193 12.5 1.75V12.25C12.5 12.3881 12.3881 12.5 12.25 12.5H1.75C1.61193 12.5 1.5 12.3881 1.5 12.25V1.75C1.5 1.61193 1.61193 1.5 1.75 1.5ZM12.25 0H1.75C0.7835 0 0 0.7835 0 1.75V12.25C0 13.2165 0.7835 14 1.75 14H12.25C13.2165 14 14 13.2165 14 12.25V1.75C14 0.7835 13.2165 0 12.25 0ZM10.7803 7.53033C10.921 7.38968 11 7.19891 11 7C11 6.80109 10.921 6.61032 10.7803 6.46967L7.53033 3.21967C7.23744 2.92678 6.76256 2.92678 6.46967 3.21967C6.17678 3.51256 6.17678 3.98744 6.46967 4.28033L8.43934 6.25H3.75C3.33579 6.25 3 6.58579 3 7C3 7.41421 3.33579 7.75 3.75 7.75H8.43934L6.46967 9.7197C6.17678 10.0126 6.17678 10.4874 6.46967 10.7803C6.76256 11.0732 7.23744 11.0732 7.53033 10.7803L10.7803 7.53033Z" fill="#0366D6"/>
</svg>
