<svg width="14" height="14" viewBox="0 0 14 14" fill="none" xmlns="http://www.w3.org/2000/svg">
<path fill-rule="evenodd" clip-rule="evenodd" d="M12.25 1.5H1.75C1.61193 1.5 1.5 1.61193 1.5 1.75V12.25C1.5 12.3881 1.61193 12.5 1.75 12.5H12.25C12.3881 12.5 12.5 12.3881 12.5 12.25V1.75C12.5 1.61193 12.3881 1.5 12.25 1.5ZM1.75 0H12.25C13.2165 0 14 0.7835 14 1.75V12.25C14 13.2165 13.2165 14 12.25 14H1.75C0.7835 14 0 13.2165 0 12.25V1.75C0 0.7835 0.7835 0 1.75 0ZM7 3C7.41421 3 7.75 3.33579 7.75 3.75V6.25H10.25C10.6642 6.25 11 6.58579 11 7C11 7.41421 10.6642 7.75 10.25 7.75H7.75V10.25C7.75 10.6642 7.41421 11 7 11C6.58579 11 6.25 10.6642 6.25 10.25V7.75H3.75C3.33579 7.75 3 7.41421 3 7C3 6.58579 3.33579 6.25 3.75 6.25H6.25V3.75C6.25 3.33579 6.58579 3 7 3Z" fill="#28A745"/>
</svg>
