<svg width="256" height="256" viewBox="0 0 256 256" fill="none" xmlns="http://www.w3.org/2000/svg">
<g clip-path="url(#clip0_312_53)">
<g filter="url(#filter0_d_312_53)">
<path d="M128 252.994C197.036 252.994 253 196.92 253 127.75C253 58.5788 197.036 2.50491 128 2.50491C58.9644 2.50491 3 58.5788 3 127.75C3 196.92 58.9644 252.994 128 252.994Z" fill="black"/>
</g>
<path d="M128 252.994C197.036 252.994 253 196.92 253 127.75C253 58.5788 197.036 2.50491 128 2.50491C58.9644 2.50491 3 58.5788 3 127.75C3 196.92 58.9644 252.994 128 252.994Z" stroke="url(#paint0_linear_312_53)" stroke-width="8.00493"/>
<path d="M128 252.994C197.036 252.994 253 196.92 253 127.75C253 58.5788 197.036 2.50491 128 2.50491C58.9644 2.50491 3 58.5788 3 127.75C3 196.92 58.9644 252.994 128 252.994Z" fill="url(#paint1_linear_312_53)"/>
<mask id="mask0_312_53" style="mask-type:alpha" maskUnits="userSpaceOnUse" x="11" y="11" width="234" height="228">
<path d="M11.9285 127.825C11.9285 179.32 45.1539 222.815 91.2923 238.235C97.0959 239.253 99.2722 235.762 99.2722 232.707C99.2722 229.943 99.1271 220.778 99.1271 211.032C69.9642 216.414 62.4195 203.904 60.0981 197.358C58.7923 194.012 53.1338 183.684 48.2008 180.92C44.1383 178.738 38.3347 173.356 48.0557 173.211C57.1963 173.065 63.7253 181.648 65.9017 185.139C76.3481 202.74 93.0334 197.795 99.7075 194.74C100.723 187.175 103.77 182.084 107.107 179.175C81.2811 176.265 54.2945 166.228 54.2945 121.715C54.2945 109.06 58.7923 98.5859 66.1919 90.4397C65.0311 87.5304 60.9686 75.602 67.3526 59.6006C67.3526 59.6006 77.0736 56.5458 99.2722 71.529C108.558 68.9105 118.424 67.6013 128.29 67.6013C138.156 67.6013 148.022 68.9105 157.308 71.529C179.507 56.4004 189.228 59.6006 189.228 59.6006C195.611 75.602 191.549 87.5304 190.388 90.4397C197.788 98.5859 202.286 108.914 202.286 121.715C202.286 166.374 175.154 176.265 149.328 179.175C153.536 182.811 157.163 189.794 157.163 200.704C157.163 216.269 157.018 228.779 157.018 232.707C157.018 235.762 159.194 239.398 164.998 238.235C210.846 222.815 244.071 179.175 244.071 127.825C244.071 63.5283 192.129 11.451 128 11.451C63.8704 11.451 11.9285 63.5283 11.9285 127.825Z" fill="white"/>
</mask>
<g mask="url(#mask0_312_53)">
<g filter="url(#filter1_d_312_53)">
<path d="M11.9285 127.825C11.9285 179.32 45.1539 222.815 91.2923 238.235C97.0959 239.253 99.2722 235.762 99.2722 232.707C99.2722 229.943 99.1271 220.778 99.1271 211.032C69.9642 216.414 62.4195 203.904 60.0981 197.358C58.7923 194.012 53.1338 183.684 48.2008 180.92C44.1383 178.738 38.3347 173.356 48.0557 173.211C57.1963 173.065 63.7253 181.648 65.9017 185.139C76.3481 202.74 93.0334 197.795 99.7075 194.74C100.723 187.175 103.77 182.084 107.107 179.175C81.2811 176.265 54.2945 166.228 54.2945 121.715C54.2945 109.06 58.7923 98.5859 66.1919 90.4397C65.0311 87.5304 60.9686 75.602 67.3526 59.6006C67.3526 59.6006 77.0736 56.5458 99.2722 71.529C108.558 68.9105 118.424 67.6013 128.29 67.6013C138.156 67.6013 148.022 68.9105 157.308 71.529C179.507 56.4004 189.228 59.6006 189.228 59.6006C195.611 75.602 191.549 87.5304 190.388 90.4397C197.788 98.5859 202.286 108.914 202.286 121.715C202.286 166.374 175.154 176.265 149.328 179.175C153.536 182.811 157.163 189.794 157.163 200.704C157.163 216.269 157.018 228.779 157.018 232.707C157.018 235.762 159.194 239.398 164.998 238.235C210.846 222.815 244.071 179.175 244.071 127.825C244.071 63.5283 192.129 11.451 128 11.451C63.8704 11.451 11.9285 63.5283 11.9285 127.825Z" fill="black"/>
</g>
<path d="M11.9285 127.825C11.9285 179.32 45.1539 222.815 91.2923 238.235C97.0959 239.253 99.2722 235.762 99.2722 232.707C99.2722 229.943 99.1271 220.778 99.1271 211.032C69.9642 216.414 62.4195 203.904 60.0981 197.358C58.7923 194.012 53.1338 183.684 48.2008 180.92C44.1383 178.738 38.3347 173.356 48.0557 173.211C57.1963 173.065 63.7253 181.648 65.9017 185.139C76.3481 202.74 93.0334 197.795 99.7075 194.74C100.723 187.175 103.77 182.084 107.107 179.175C81.2811 176.265 54.2945 166.228 54.2945 121.715C54.2945 109.06 58.7923 98.5859 66.1919 90.4397C65.0311 87.5304 60.9686 75.602 67.3526 59.6006C67.3526 59.6006 77.0736 56.5458 99.2722 71.529C108.558 68.9105 118.424 67.6013 128.29 67.6013C138.156 67.6013 148.022 68.9105 157.308 71.529C179.507 56.4004 189.228 59.6006 189.228 59.6006C195.611 75.602 191.549 87.5304 190.388 90.4397C197.788 98.5859 202.286 108.914 202.286 121.715C202.286 166.374 175.154 176.265 149.328 179.175C153.536 182.811 157.163 189.794 157.163 200.704C157.163 216.269 157.018 228.779 157.018 232.707C157.018 235.762 159.194 239.398 164.998 238.235C210.846 222.815 244.071 179.175 244.071 127.825C244.071 63.5283 192.129 11.451 128 11.451C63.8704 11.451 11.9285 63.5283 11.9285 127.825Z" fill="url(#paint2_linear_312_53)"/>
<path d="M11.9285 127.825C11.9285 179.32 45.1539 222.815 91.2923 238.235C97.0959 239.253 99.2722 235.762 99.2722 232.707C99.2722 229.943 99.1271 220.778 99.1271 211.032C69.9642 216.414 62.4195 203.904 60.0981 197.358C58.7923 194.012 53.1338 183.684 48.2008 180.92C44.1383 178.738 38.3347 173.356 48.0557 173.211C57.1963 173.065 63.7253 181.648 65.9017 185.139C76.3481 202.74 93.0334 197.795 99.7075 194.74C100.723 187.175 103.77 182.084 107.107 179.175C81.2811 176.265 54.2945 166.228 54.2945 121.715C54.2945 109.06 58.7923 98.5859 66.1919 90.4397C65.0311 87.5304 60.9686 75.602 67.3526 59.6006C67.3526 59.6006 77.0736 56.5458 99.2722 71.529C108.558 68.9105 118.424 67.6013 128.29 67.6013C138.156 67.6013 148.022 68.9105 157.308 71.529C179.507 56.4004 189.228 59.6006 189.228 59.6006C195.611 75.602 191.549 87.5304 190.388 90.4397C197.788 98.5859 202.286 108.914 202.286 121.715C202.286 166.374 175.154 176.265 149.328 179.175C153.536 182.811 157.163 189.794 157.163 200.704C157.163 216.269 157.018 228.779 157.018 232.707C157.018 235.762 159.194 239.398 164.998 238.235C210.846 222.815 244.071 179.175 244.071 127.825C244.071 63.5283 192.129 11.451 128 11.451C63.8704 11.451 11.9285 63.5283 11.9285 127.825Z" fill="url(#paint3_radial_312_53)" fill-opacity="0.5"/>
<g style="mix-blend-mode:multiply" filter="url(#filter2_i_312_53)">
<path d="M11.9285 127.825C11.9285 179.32 45.1539 222.815 91.2923 238.235C97.0959 239.253 99.2722 235.762 99.2722 232.707C99.2722 229.943 99.1271 220.778 99.1271 211.032C69.9642 216.414 62.4195 203.904 60.0981 197.358C58.7923 194.012 53.1338 183.684 48.2008 180.92C44.1383 178.738 38.3347 173.356 48.0557 173.211C57.1963 173.065 63.7253 181.648 65.9017 185.139C76.3481 202.74 93.0334 197.795 99.7075 194.74C100.723 187.175 103.77 182.084 107.107 179.175C81.2811 176.265 54.2945 166.228 54.2945 121.715C54.2945 109.06 58.7923 98.5859 66.1919 90.4397C65.0311 87.5304 60.9686 75.602 67.3526 59.6006C67.3526 59.6006 77.0736 56.5458 99.2722 71.529C108.558 68.9105 118.424 67.6013 128.29 67.6013C138.156 67.6013 148.022 68.9105 157.308 71.529C179.507 56.4004 189.228 59.6006 189.228 59.6006C195.611 75.602 191.549 87.5304 190.388 90.4397C197.788 98.5859 202.286 108.914 202.286 121.715C202.286 166.374 175.154 176.265 149.328 179.175C153.536 182.811 157.163 189.794 157.163 200.704C157.163 216.269 157.018 228.779 157.018 232.707C157.018 235.762 159.194 239.398 164.998 238.235C210.846 222.815 244.071 179.175 244.071 127.825C244.071 63.5283 192.129 11.451 128 11.451C63.8704 11.451 11.9285 63.5283 11.9285 127.825Z" fill="white"/>
</g>
</g>
</g>
<defs>
<filter id="filter0_d_312_53" x="-2" y="1.50491" width="260" height="260.489" filterUnits="userSpaceOnUse" color-interpolation-filters="sRGB">
<feFlood flood-opacity="0" result="BackgroundImageFix"/>
<feColorMatrix in="SourceAlpha" type="matrix" values="0 0 0 0 0 0 0 0 0 0 0 0 0 0 0 0 0 0 127 0" result="hardAlpha"/>
<feOffset dy="4"/>
<feGaussianBlur stdDeviation="2.5"/>
<feColorMatrix type="matrix" values="0 0 0 0 0 0 0 0 0 0 0 0 0 0 0 0 0 0 0.174026 0"/>
<feBlend mode="normal" in2="BackgroundImageFix" result="effect1_dropShadow_312_53"/>
<feBlend mode="normal" in="SourceGraphic" in2="effect1_dropShadow_312_53" result="shape"/>
</filter>
<filter id="filter1_d_312_53" x="7.92847" y="11.451" width="240.143" height="235.006" filterUnits="userSpaceOnUse" color-interpolation-filters="sRGB">
<feFlood flood-opacity="0" result="BackgroundImageFix"/>
<feColorMatrix in="SourceAlpha" type="matrix" values="0 0 0 0 0 0 0 0 0 0 0 0 0 0 0 0 0 0 127 0" result="hardAlpha"/>
<feOffset dy="4"/>
<feGaussianBlur stdDeviation="2"/>
<feColorMatrix type="matrix" values="0 0 0 0 1 0 0 0 0 1 0 0 0 0 1 0 0 0 0.529297 0"/>
<feBlend mode="normal" in2="BackgroundImageFix" result="effect1_dropShadow_312_53"/>
<feBlend mode="normal" in="SourceGraphic" in2="effect1_dropShadow_312_53" result="shape"/>
</filter>
<filter id="filter2_i_312_53" x="11.9285" y="11.451" width="232.143" height="227.006" filterUnits="userSpaceOnUse" color-interpolation-filters="sRGB">
<feFlood flood-opacity="0" result="BackgroundImageFix"/>
<feBlend mode="normal" in="SourceGraphic" in2="BackgroundImageFix" result="shape"/>
<feColorMatrix in="SourceAlpha" type="matrix" values="0 0 0 0 0 0 0 0 0 0 0 0 0 0 0 0 0 0 127 0" result="hardAlpha"/>
<feOffset/>
<feGaussianBlur stdDeviation="4.5"/>
<feComposite in2="hardAlpha" operator="arithmetic" k2="-1" k3="1"/>
<feColorMatrix type="matrix" values="0 0 0 0 0.258824 0 0 0 0 0.137255 0 0 0 0 0.431373 0 0 0 0.70355 0"/>
<feBlend mode="normal" in2="shape" result="effect1_innerShadow_312_53"/>
</filter>
<linearGradient id="paint0_linear_312_53" x1="128" y1="2.50491" x2="128" y2="252.994" gradientUnits="userSpaceOnUse">
<stop stop-opacity="0.1"/>
<stop offset="1" stop-opacity="0.3"/>
</linearGradient>
<linearGradient id="paint1_linear_312_53" x1="128" y1="2.50491" x2="128" y2="252.994" gradientUnits="userSpaceOnUse">
<stop stop-color="#FEFEFE"/>
<stop offset="1" stop-color="#DFDFDF"/>
</linearGradient>
<linearGradient id="paint2_linear_312_53" x1="128" y1="238.457" x2="128" y2="11.451" gradientUnits="userSpaceOnUse">
<stop stop-color="#DBAB09"/>
<stop offset="1" stop-color="#FFDF5D"/>
</linearGradient>
<radialGradient id="paint3_radial_312_53" cx="0" cy="0" r="1" gradientUnits="userSpaceOnUse" gradientTransform="translate(-5.46405 127.499) rotate(90) scale(185.736 176.568)">
<stop stop-color="#FFEA7F"/>
<stop offset="1" stop-color="#914B99" stop-opacity="0"/>
</radialGradient>
<clipPath id="clip0_312_53">
<rect width="256" height="256" fill="white"/>
</clipPath>
</defs>
</svg>
