<svg width="256" height="256" viewBox="0 0 256 256" fill="none" xmlns="http://www.w3.org/2000/svg">
<g clip-path="url(#clip0_312_54)">
<g filter="url(#filter0_d_312_54)">
<path d="M128 252.994C197.036 252.994 253 196.92 253 127.749C253 58.5787 197.036 2.50488 128 2.50488C58.9644 2.50488 3 58.5787 3 127.749C3 196.92 58.9644 252.994 128 252.994Z" fill="black"/>
</g>
<path d="M128 252.994C197.036 252.994 253 196.92 253 127.749C253 58.5787 197.036 2.50488 128 2.50488C58.9644 2.50488 3 58.5787 3 127.749C3 196.92 58.9644 252.994 128 252.994Z" stroke="url(#paint0_linear_312_54)" stroke-width="8.00493"/>
<path d="M128 252.994C197.036 252.994 253 196.92 253 127.749C253 58.5787 197.036 2.50488 128 2.50488C58.9644 2.50488 3 58.5787 3 127.749C3 196.92 58.9644 252.994 128 252.994Z" fill="url(#paint1_linear_312_54)"/>
<mask id="mask0_312_54" style="mask-type:alpha" maskUnits="userSpaceOnUse" x="11" y="11" width="234" height="228">
<path d="M11.9312 127.825C11.9312 179.32 45.1566 222.815 91.295 238.235C97.0986 239.253 99.2749 235.762 99.2749 232.707C99.2749 229.943 99.1298 220.778 99.1298 211.032C69.9669 216.414 62.4222 203.904 60.1008 197.358C58.795 194.012 53.1365 183.684 48.2035 180.92C44.141 178.738 38.3374 173.356 48.0584 173.211C57.199 173.065 63.728 181.648 65.9044 185.139C76.3508 202.741 93.0361 197.795 99.7102 194.74C100.726 187.176 103.773 182.084 107.11 179.175C81.2838 176.265 54.2972 166.228 54.2972 121.715C54.2972 109.06 58.795 98.5859 66.1945 90.4397C65.0338 87.5304 60.9713 75.6021 67.3553 59.6007C67.3553 59.6007 77.0762 56.5458 99.2749 71.529C108.561 68.9106 118.427 67.6014 128.293 67.6014C138.159 67.6014 148.025 68.9106 157.311 71.529C179.509 56.4004 189.23 59.6007 189.23 59.6007C195.614 75.6021 191.552 87.5304 190.391 90.4397C197.791 98.5859 202.288 108.914 202.288 121.715C202.288 166.374 175.157 176.265 149.331 179.175C153.538 182.811 157.166 189.794 157.166 200.704C157.166 216.269 157.02 228.779 157.02 232.707C157.02 235.762 159.197 239.398 165 238.235C210.849 222.815 244.074 179.175 244.074 127.825C244.074 63.5283 192.132 11.451 128.003 11.451C63.8731 11.451 11.9312 63.5283 11.9312 127.825Z" fill="white"/>
</mask>
<g mask="url(#mask0_312_54)">
<g filter="url(#filter1_d_312_54)">
<path d="M11.9312 127.825C11.9312 179.32 45.1566 222.815 91.295 238.235C97.0986 239.253 99.2749 235.762 99.2749 232.707C99.2749 229.943 99.1298 220.778 99.1298 211.032C69.9669 216.414 62.4222 203.904 60.1008 197.358C58.795 194.012 53.1365 183.684 48.2035 180.92C44.141 178.738 38.3374 173.356 48.0584 173.211C57.199 173.065 63.728 181.648 65.9044 185.139C76.3508 202.741 93.0361 197.795 99.7102 194.74C100.726 187.176 103.773 182.084 107.11 179.175C81.2838 176.265 54.2972 166.228 54.2972 121.715C54.2972 109.06 58.795 98.5859 66.1945 90.4397C65.0338 87.5304 60.9713 75.6021 67.3553 59.6007C67.3553 59.6007 77.0762 56.5458 99.2749 71.529C108.561 68.9106 118.427 67.6014 128.293 67.6014C138.159 67.6014 148.025 68.9106 157.311 71.529C179.509 56.4004 189.23 59.6007 189.23 59.6007C195.614 75.6021 191.552 87.5304 190.391 90.4397C197.791 98.5859 202.288 108.914 202.288 121.715C202.288 166.374 175.157 176.265 149.331 179.175C153.538 182.811 157.166 189.794 157.166 200.704C157.166 216.269 157.02 228.779 157.02 232.707C157.02 235.762 159.197 239.398 165 238.235C210.849 222.815 244.074 179.175 244.074 127.825C244.074 63.5283 192.132 11.451 128.003 11.451C63.8731 11.451 11.9312 63.5283 11.9312 127.825Z" fill="black"/>
</g>
<path d="M11.9312 127.825C11.9312 179.32 45.1566 222.815 91.295 238.235C97.0986 239.253 99.2749 235.762 99.2749 232.707C99.2749 229.943 99.1298 220.778 99.1298 211.032C69.9669 216.414 62.4222 203.904 60.1008 197.358C58.795 194.012 53.1365 183.684 48.2035 180.92C44.141 178.738 38.3374 173.356 48.0584 173.211C57.199 173.065 63.728 181.648 65.9044 185.139C76.3508 202.741 93.0361 197.795 99.7102 194.74C100.726 187.176 103.773 182.084 107.11 179.175C81.2838 176.265 54.2972 166.228 54.2972 121.715C54.2972 109.06 58.795 98.5859 66.1945 90.4397C65.0338 87.5304 60.9713 75.6021 67.3553 59.6007C67.3553 59.6007 77.0762 56.5458 99.2749 71.529C108.561 68.9106 118.427 67.6014 128.293 67.6014C138.159 67.6014 148.025 68.9106 157.311 71.529C179.509 56.4004 189.23 59.6007 189.23 59.6007C195.614 75.6021 191.552 87.5304 190.391 90.4397C197.791 98.5859 202.288 108.914 202.288 121.715C202.288 166.374 175.157 176.265 149.331 179.175C153.538 182.811 157.166 189.794 157.166 200.704C157.166 216.269 157.02 228.779 157.02 232.707C157.02 235.762 159.197 239.398 165 238.235C210.849 222.815 244.074 179.175 244.074 127.825C244.074 63.5283 192.132 11.451 128.003 11.451C63.8731 11.451 11.9312 63.5283 11.9312 127.825Z" fill="url(#paint2_linear_312_54)"/>
<path d="M11.9312 127.825C11.9312 179.32 45.1566 222.815 91.295 238.235C97.0986 239.253 99.2749 235.762 99.2749 232.707C99.2749 229.943 99.1298 220.778 99.1298 211.032C69.9669 216.414 62.4222 203.904 60.1008 197.358C58.795 194.012 53.1365 183.684 48.2035 180.92C44.141 178.738 38.3374 173.356 48.0584 173.211C57.199 173.065 63.728 181.648 65.9044 185.139C76.3508 202.741 93.0361 197.795 99.7102 194.74C100.726 187.176 103.773 182.084 107.11 179.175C81.2838 176.265 54.2972 166.228 54.2972 121.715C54.2972 109.06 58.795 98.5859 66.1945 90.4397C65.0338 87.5304 60.9713 75.6021 67.3553 59.6007C67.3553 59.6007 77.0762 56.5458 99.2749 71.529C108.561 68.9106 118.427 67.6014 128.293 67.6014C138.159 67.6014 148.025 68.9106 157.311 71.529C179.509 56.4004 189.23 59.6007 189.23 59.6007C195.614 75.6021 191.552 87.5304 190.391 90.4397C197.791 98.5859 202.288 108.914 202.288 121.715C202.288 166.374 175.157 176.265 149.331 179.175C153.538 182.811 157.166 189.794 157.166 200.704C157.166 216.269 157.02 228.779 157.02 232.707C157.02 235.762 159.197 239.398 165 238.235C210.849 222.815 244.074 179.175 244.074 127.825C244.074 63.5283 192.132 11.451 128.003 11.451C63.8731 11.451 11.9312 63.5283 11.9312 127.825Z" fill="url(#paint3_radial_312_54)" fill-opacity="0.5"/>
<g style="mix-blend-mode:multiply" filter="url(#filter2_i_312_54)">
<path d="M11.9312 127.825C11.9312 179.32 45.1566 222.815 91.295 238.235C97.0986 239.253 99.2749 235.762 99.2749 232.707C99.2749 229.943 99.1298 220.778 99.1298 211.032C69.9669 216.414 62.4222 203.904 60.1008 197.358C58.795 194.012 53.1365 183.684 48.2035 180.92C44.141 178.738 38.3374 173.356 48.0584 173.211C57.199 173.065 63.728 181.648 65.9044 185.139C76.3508 202.741 93.0361 197.795 99.7102 194.74C100.726 187.176 103.773 182.084 107.11 179.175C81.2838 176.265 54.2972 166.228 54.2972 121.715C54.2972 109.06 58.795 98.5859 66.1945 90.4397C65.0338 87.5304 60.9713 75.6021 67.3553 59.6007C67.3553 59.6007 77.0762 56.5458 99.2749 71.529C108.561 68.9106 118.427 67.6014 128.293 67.6014C138.159 67.6014 148.025 68.9106 157.311 71.529C179.509 56.4004 189.23 59.6007 189.23 59.6007C195.614 75.6021 191.552 87.5304 190.391 90.4397C197.791 98.5859 202.288 108.914 202.288 121.715C202.288 166.374 175.157 176.265 149.331 179.175C153.538 182.811 157.166 189.794 157.166 200.704C157.166 216.269 157.02 228.779 157.02 232.707C157.02 235.762 159.197 239.398 165 238.235C210.849 222.815 244.074 179.175 244.074 127.825C244.074 63.5283 192.132 11.451 128.003 11.451C63.8731 11.451 11.9312 63.5283 11.9312 127.825Z" fill="white"/>
</g>
</g>
</g>
<defs>
<filter id="filter0_d_312_54" x="-2" y="1.50488" width="260" height="260.489" filterUnits="userSpaceOnUse" color-interpolation-filters="sRGB">
<feFlood flood-opacity="0" result="BackgroundImageFix"/>
<feColorMatrix in="SourceAlpha" type="matrix" values="0 0 0 0 0 0 0 0 0 0 0 0 0 0 0 0 0 0 127 0" result="hardAlpha"/>
<feOffset dy="4"/>
<feGaussianBlur stdDeviation="2.5"/>
<feColorMatrix type="matrix" values="0 0 0 0 0 0 0 0 0 0 0 0 0 0 0 0 0 0 0.174026 0"/>
<feBlend mode="normal" in2="BackgroundImageFix" result="effect1_dropShadow_312_54"/>
<feBlend mode="normal" in="SourceGraphic" in2="effect1_dropShadow_312_54" result="shape"/>
</filter>
<filter id="filter1_d_312_54" x="7.93115" y="11.451" width="240.143" height="235.006" filterUnits="userSpaceOnUse" color-interpolation-filters="sRGB">
<feFlood flood-opacity="0" result="BackgroundImageFix"/>
<feColorMatrix in="SourceAlpha" type="matrix" values="0 0 0 0 0 0 0 0 0 0 0 0 0 0 0 0 0 0 127 0" result="hardAlpha"/>
<feOffset dy="4"/>
<feGaussianBlur stdDeviation="2"/>
<feColorMatrix type="matrix" values="0 0 0 0 1 0 0 0 0 1 0 0 0 0 1 0 0 0 0.529297 0"/>
<feBlend mode="normal" in2="BackgroundImageFix" result="effect1_dropShadow_312_54"/>
<feBlend mode="normal" in="SourceGraphic" in2="effect1_dropShadow_312_54" result="shape"/>
</filter>
<filter id="filter2_i_312_54" x="11.9312" y="11.451" width="232.143" height="227.006" filterUnits="userSpaceOnUse" color-interpolation-filters="sRGB">
<feFlood flood-opacity="0" result="BackgroundImageFix"/>
<feBlend mode="normal" in="SourceGraphic" in2="BackgroundImageFix" result="shape"/>
<feColorMatrix in="SourceAlpha" type="matrix" values="0 0 0 0 0 0 0 0 0 0 0 0 0 0 0 0 0 0 127 0" result="hardAlpha"/>
<feOffset/>
<feGaussianBlur stdDeviation="4.5"/>
<feComposite in2="hardAlpha" operator="arithmetic" k2="-1" k3="1"/>
<feColorMatrix type="matrix" values="0 0 0 0 0.258824 0 0 0 0 0.137255 0 0 0 0 0.431373 0 0 0 0.70355 0"/>
<feBlend mode="normal" in2="shape" result="effect1_innerShadow_312_54"/>
</filter>
<linearGradient id="paint0_linear_312_54" x1="128" y1="2.50488" x2="128" y2="252.994" gradientUnits="userSpaceOnUse">
<stop stop-opacity="0.1"/>
<stop offset="1" stop-opacity="0.3"/>
</linearGradient>
<linearGradient id="paint1_linear_312_54" x1="128" y1="2.50488" x2="128" y2="252.994" gradientUnits="userSpaceOnUse">
<stop stop-color="#FEFEFE"/>
<stop offset="1" stop-color="#DFDFDF"/>
</linearGradient>
<linearGradient id="paint2_linear_312_54" x1="128.003" y1="238.457" x2="128.003" y2="11.451" gradientUnits="userSpaceOnUse">
<stop stop-color="#492779"/>
<stop offset="1" stop-color="#892793"/>
</linearGradient>
<radialGradient id="paint3_radial_312_54" cx="0" cy="0" r="1" gradientUnits="userSpaceOnUse" gradientTransform="translate(-5.46137 127.499) rotate(90) scale(185.736 176.568)">
<stop stop-color="#D077DB"/>
<stop offset="1" stop-color="#914B99" stop-opacity="0"/>
</radialGradient>
<clipPath id="clip0_312_54">
<rect width="256" height="256" fill="white"/>
</clipPath>
</defs>
</svg>
