<svg xmlns="http://www.w3.org/2000/svg" width="185" height="32" fill="none" viewBox="0 0 185 32">
  <rect x="0" y="0" width="185" height="32" rx="5" fill="#000" />
  <g>
    <path fill="#151515" d="M33 0h-1v32h1V0Z"/>
    <path fill="#fff" d="M45 20.7a5 5 0 0 0 2.2-.5c.6-.4 1-1 1.4-1.6a6.2 6.2 0 0 0 0-4.9c-.3-.7-.8-1.2-1.4-1.6a5 5 0 0 0-4.4 0c-.6.4-1 1-1.4 1.6-.4.7-.5 1.5-.5 2.4 0 1 .1 1.8.5 2.5a3.7 3.7 0 0 0 3.6 2.1Zm0-1.3c-.5 0-1-.2-1.4-.4l-.8-1.1c-.2-.5-.3-1-.3-1.7s0-1.3.3-1.8c.2-.4.5-.8.8-1 .4-.3.9-.5 1.4-.5.5 0 1 .2 1.3.4.4.3.7.7.9 1.1.2.5.3 1 .3 1.7s0 1.3-.3 1.8c-.2.4-.5.8-.9 1-.3.3-.8.5-1.3.5Zm5.7 3.3h1.5v-3.2h.1l.5.6.7.4.8.1c.6 0 1-.1 1.5-.4.4-.3.7-.7.9-1.2.2-.5.3-1 .3-1.8 0-.7 0-1.3-.3-1.8-.2-.5-.5-.9-1-1.2-.4-.3-.8-.4-1.4-.4l-.8.1-.7.4a2 2 0 0 0-.5.6v-1h-1.6v8.8Zm3.2-3.4c-.4 0-.7 0-1-.2l-.5-.7a3 3 0 0 1-.2-1.2c0-.4 0-.8.2-1.1.1-.4.3-.6.6-.8l.9-.2a1.5 1.5 0 0 1 1.4 1l.2 1.1c0 .5 0 .8-.2 1.2-.1.3-.3.5-.6.7-.2.2-.5.2-.8.2Zm7.5 1.3 1.1-.1.9-.5a2.5 2.5 0 0 0 .8-1.2v-.1h-1.4l-.2.4-.5.2-.7.2c-.4 0-.7-.1-1-.3a1 1 0 0 1-.5-.6l-.2-1v-.7c0-.4 0-.8.2-1 .1-.3.3-.6.6-.7.2-.2.5-.2.8-.2.3 0 .6 0 .8.2l.6.6.2 1.1v.6l.7-1H59v1h5.3v-.4a3 3 0 0 0-.4-1.7c-.2-.5-.6-1-1-1.2a3 3 0 0 0-1.6-.4 3 3 0 0 0-1.6.4c-.5.3-.9.7-1.1 1.2-.3.5-.4 1.1-.4 1.8s.1 1.3.4 1.8c.2.5.6 1 1 1.2.5.3 1.1.4 1.8.4Zm4.4-.1h1.5v-3.8c0-.4 0-.6.2-.9l.5-.5c.2-.2.5-.2.8-.2.4 0 .7 0 1 .3.2.3.3.7.3 1.2v3.9h1.5v-4.3c0-.7-.2-1.3-.6-1.8-.4-.4-1-.6-1.7-.6-.5 0-.9 0-1.2.3l-.7.8v-1h-1.6v6.6Zm10.9 0H78v-6.6h-1.4v6.6Zm.7-7.7c.2 0 .5 0 .6-.2.2-.2.3-.4.3-.7 0-.2 0-.4-.3-.6a.9.9 0 0 0-.6-.2c-.2 0-.5 0-.6.2l-.3.6c0 .3 0 .5.3.7l.6.2Zm2.6 7.7h1.5v-3.8c0-.4 0-.6.2-.9 0-.2.2-.4.5-.5.2-.2.4-.2.7-.2.5 0 .8 0 1 .3.3.3.4.7.4 1.2v3.9h1.5v-4.3c0-.7-.2-1.3-.6-1.8-.4-.4-1-.6-1.7-.6-.5 0-.9 0-1.2.3l-.7.8h-.1v-1H80v6.6Zm14.6.2c.7 0 1.3-.1 1.8-.3.5-.3 1-.6 1.3-1 .3-.5.5-1 .6-1.6h-1.5a2 2 0 0 1-1.2 1.4l-1 .2c-.5 0-1-.2-1.3-.4-.3-.3-.6-.6-.8-1.1-.2-.5-.3-1-.3-1.7s0-1.3.3-1.8c.2-.4.5-.8.8-1 .4-.3.8-.5 1.3-.5.4 0 .7.1 1 .3.3.1.5.3.7.6.2.2.4.5.4.8h1.6a4 4 0 0 0-.6-1.5c-.4-.5-.8-.9-1.3-1.1a4 4 0 0 0-1.8-.4 4 4 0 0 0-2.1.5c-.6.4-1 1-1.4 1.6a6.2 6.2 0 0 0 0 4.9c.3.7.8 1.2 1.4 1.6a4 4 0 0 0 2.1.5Zm8.1-.1c.6 0 1.2-.1 1.7-.4a2 2 0 0 0 1-1.2 4 4 0 0 0 .5-1.8 4 4 0 0 0-.4-1.8c-.3-.5-.7-1-1.1-1.2-.5-.3-1-.4-1.7-.4s-1.2.1-1.7.4c-.5.3-.8.7-1 1.2a4 4 0 0 0-.5 1.8c0 .7.1 1.3.4 1.8.3.6.6 1 1.1 1.2.5.3 1 .4 1.7.4Zm0-1.2c-.4 0-.7 0-.9-.2l-.6-.8-.1-1.2.1-1.2.6-.7c.2-.2.5-.3.9-.3.3 0 .6 0 .9.3.2.1.4.4.5.7.2.3.2.7.2 1.2s0 .9-.2 1.2l-.5.8-1 .2Zm7 1.2c.5 0 .9 0 1.2-.3.4-.2.7-.5.8-.8h.1v1h1.5v-9.1h-1.5V15a2 2 0 0 0-.9-.9c-.3-.2-.7-.3-1.2-.3s-1 .1-1.4.4a4 4 0 0 0-1 1.2c-.2.5-.3 1.1-.3 1.8s.1 1.3.4 1.8c.2.5.5 1 1 1.2.3.3.8.4 1.3.4Zm.5-1.3c-.3 0-.6 0-.9-.2l-.5-.7a3 3 0 0 1-.2-1.2c0-.4 0-.8.2-1.1 0-.4.3-.6.5-.8l.9-.2c.3 0 .6 0 .9.2l.6.8.2 1.1-.2 1.2-.6.7c-.3.2-.6.2-.9.2Zm7.8 1.3 1.2-.1.9-.5a2.5 2.5 0 0 0 .8-1.2v-.1h-1.4l-.3.4-.4.2-.7.2c-.4 0-.7-.1-1-.3a1 1 0 0 1-.5-.6l-.2-1v-.7c0-.4 0-.8.2-1 .1-.3.3-.6.6-.7.2-.2.5-.2.8-.2.3 0 .6 0 .8.2l.6.6.2 1.1v.6l.7-1h-4.6v1h5.3v-.4a3 3 0 0 0-.4-1.7c-.2-.5-.6-1-1-1.2a3 3 0 0 0-1.6-.4 3 3 0 0 0-1.7.4 3 3 0 0 0-1 1.2c-.3.5-.4 1.1-.4 1.8s.1 1.3.4 1.8c.2.5.6 1 1 1.2.5.3 1 .4 1.7.4Zm7.7.1c.7 0 1.3-.1 1.8-.3.5-.2.9-.6 1.1-1 .3-.4.5-.9.5-1.4a2 2 0 0 0-.7-1.6 4 4 0 0 0-2-.9l-.9-.2c-.5 0-.9-.2-1.1-.4a1 1 0 0 1-.4-.8c0-.3 0-.5.2-.6l.6-.5.9-.1.8.1c.3.1.5.3.6.5.2.1.3.3.3.6h1.5c0-.5-.2-1-.5-1.3-.2-.4-.6-.7-1-.9a4 4 0 0 0-1.7-.3 4 4 0 0 0-1.7.3c-.5.2-.9.5-1.1 1-.3.3-.5.8-.5 1.3 0 .6.3 1.2.7 1.6.4.4 1 .7 1.9.9l1 .2c.5.1.9.3 1.1.5.3.2.4.4.4.7 0 .3 0 .5-.2.7l-.7.5-.9.1a3 3 0 0 1-1-.1l-.6-.5a1 1 0 0 1-.3-.6h-1.5c0 .5.2 1 .4 1.3.3.4.7.7 1.2.9.5.2 1.1.3 1.8.3Zm6.7-.1.8-.1a2 2 0 0 0 1.1-.9h.1v.9h1.5V16c0-.5-.1-.9-.3-1.2a2 2 0 0 0-1-.7c-.3-.2-.8-.3-1.4-.3-.5 0-1 0-1.3.2l-1 .7c-.2.2-.4.6-.4 1h1.4c0-.3.2-.4.4-.5.3-.2.5-.2.9-.2s.7 0 .9.3c.2.1.3.4.3.7v2c0 .3 0 .6-.2.8a1 1 0 0 1-.6.5l-.8.2c-.3 0-.6-.1-.8-.3a.8.8 0 0 1-.3-.6c0-.3.1-.5.3-.7l1-.2 2.2-.2v-1l-2.5.2a3 3 0 0 0-1.8.5c-.5.4-.7.8-.7 1.4 0 .4.1.8.3 1 .2.4.4.6.8.8l1 .2Zm5.3-.1h1.5v-3.8c0-.4 0-.6.2-.9 0-.2.3-.4.5-.5.2-.2.4-.2.7-.2.5 0 .8 0 1 .3.3.3.4.7.4 1.2v3.9h1.5v-4.3c0-.7-.2-1.3-.6-1.8-.4-.4-1-.6-1.7-.6-.5 0-.9 0-1.2.3l-.7.8h-.1v-1h-1.5v6.6Zm9.9.1c.5 0 .9 0 1.2-.3.4-.2.6-.5.8-.8h.1v1h1.5v-9.1h-1.5V15h-.1a2 2 0 0 0-.8-.9c-.3-.2-.7-.3-1.2-.3-.6 0-1 .1-1.4.4a4 4 0 0 0-1 1.2c-.2.5-.3 1.1-.3 1.8s.1 1.3.3 1.8c.3.5.6 1 1 1.2.4.3.9.4 1.4.4Zm.5-1.3c-.4 0-.7 0-1-.2l-.5-.7a3 3 0 0 1-.2-1.2c0-.4 0-.8.2-1.1.2-.4.3-.6.6-.8l.9-.2c.3 0 .6 0 .9.2l.5.8c.2.3.2.7.2 1.1 0 .5 0 .8-.2 1.2l-.5.7c-.3.2-.6.2-1 .2Zm8.7 1.3c.5 0 1-.1 1.4-.4a4 4 0 0 0 1-1.2c.1-.5.3-1 .3-1.8 0-.7-.2-1.3-.4-1.8s-.5-.9-1-1.2c-.3-.3-.8-.4-1.3-.4s-1 .1-1.3.3a2 2 0 0 0-.7.9h-.1v-3.6h-1.5v9.1h1.5v-1l.8.8c.4.2.8.3 1.3.3Zm-.5-1.3c-.4 0-.7 0-.9-.2l-.6-.7a3 3 0 0 1-.2-1.2c0-.4 0-.8.2-1.1l.6-.8.9-.2a1.5 1.5 0 0 1 1.4 1c.2.3.2.7.2 1.1 0 .5 0 .8-.2 1.2l-.5.7c-.3.2-.6.2-1 .2Zm7.5 1.3a3 3 0 0 0 1.7-.4 2 2 0 0 0 1-1.2 4 4 0 0 0 .5-1.8 4 4 0 0 0-.4-1.8c-.3-.5-.6-1-1.1-1.2-.5-.3-1-.4-1.7-.4s-1.2.1-1.7.4c-.5.3-.8.7-1 1.2a4 4 0 0 0-.5 1.8c0 .7.2 1.3.4 1.8.3.6.6 1 1.1 1.2.5.3 1 .4 1.7.4Zm0-1.2c-.4 0-.6 0-.9-.2l-.5-.8c-.2-.3-.2-.7-.2-1.2s0-.9.2-1.2c0-.3.3-.6.5-.7l.9-.3c.3 0 .6 0 .9.3.2.1.4.4.5.7.2.3.2.7.2 1.2s0 .9-.2 1.2c0 .3-.3.6-.5.8l-.9.2Zm3.8 1.1h1.6l1.4-2.3 1.4 2.3h1.7l-2.1-3.3 2.1-3.3h-1.6l-1.3 2.3h-.1l-1.4-2.3h-1.7l2.2 3.3-2.2 3.3Z"/><path fill="#151515" d="m9.5 11 7-3.8c.3-.3.8-.3 1.2 0l6.6 3.8c.3.2.5.5.5.9V20c0 .4-.2.7-.5 1l-6.9 3.9a1 1 0 0 1-1 0l-6.9-4a1 1 0 0 1-.5-1v-8.1c0-.4.2-.7.5-.9Z"/><path fill="#999" fill-rule="evenodd" d="M16.9 16.2v8l.3-.2 6.3-3.6c.3-.2.4-.4.4-.7v-7.3l-.1-.4-6.7 3.8-.2.4Zm3.5 4.5c0 .2 0 .3-.3.4l-2 1.3c-.2 0-.4 0-.4-.2v-5.4l.2-.4 4.8-2.8c.2 0 .3 0 .3.2v2.9c0 .2 0 .3-.2.4l-2.2 1.1-.2.4v2.1Z" clip-rule="evenodd"/>
    <path fill="#F2F2F2" fill-rule="evenodd" d="M9.9 19.7v-7.3c0-.3.1-.6.4-.7l6-3.5.6-.1h.5l6 3.6c.2 0 .3.2.4.3L17 15.8l-.2.4v8l-.4-.2-6.2-3.6a.8.8 0 0 1-.4-.7Zm.9-5.9v2.9c0 .2 0 .3.2.4l2.1 1.2c.2.1.3.3.3.4v2c0 .2 0 .3.2.4l2.1 1.3c.2 0 .4 0 .4-.2v-5.4c0-.1 0-.3-.3-.4l-4.7-2.7c-.1-.1-.3 0-.3.1Zm8.2-3.4-1.9 1c-.1.2-.3.2-.5 0l-1.8-1h-.4L12 11.7c-.2.1-.2.3 0 .4l4.6 2.7h.4l4.6-2.7c.1 0 .2-.3 0-.4l-2.3-1.3H19Z" clip-rule="evenodd"/>
  </g>    
</svg>
