<svg xmlns="http://www.w3.org/2000/svg" fill="none" viewBox="0 0 142 32"><path fill="url(#a)" d="M138.5 0H3.5C1.5 0 0 1.8 0 4v24c0 2.2 1.6 4 3.5 4h135c2 0 3.5-1.8 3.5-4V4c0-2.2-1.6-4-3.5-4Z"/><path fill="#FF8A00" d="M33 0h-1v32h1V0Z"/><path fill="#fff" d="M49.1 16.2c0 1-.2 1.8-.5 2.5a3.8 3.8 0 0 1-3.6 2 3.9 3.9 0 0 1-3.6-2.1 6.2 6.2 0 0 1 0-4.9 3.9 3.9 0 0 1 3.6-2 3.8 3.8 0 0 1 3.6 2.1c.3.6.5 1.4.5 2.4Zm-1.6 0c0-.7-.1-1.2-.3-1.7-.2-.5-.5-.8-1-1A2.3 2.3 0 0 0 45 13c-.5 0-1 0-1.3.3l-.9 1a5.2 5.2 0 0 0 0 3.5c.3.5.6.8 1 1 .3.3.7.4 1.2.4s1 0 1.3-.3c.4-.3.7-.6.9-1 .2-.6.3-1.1.3-1.8Zm3 7V14h1.6v1h.1l.3-.4.6-.5a2 2 0 0 1 1-.2 2.5 2.5 0 0 1 2.4 1.5c.2.6.4 1.2.4 2 0 .7-.2 1.3-.4 1.8s-.6.9-1 1.2c-.4.2-.9.4-1.4.4-.4 0-.7 0-1-.2a2 2 0 0 1-.6-.5 3 3 0 0 1-.3-.5v3.6h-1.6Zm1.6-5.9c0 .4 0 .8.2 1.2l.5.7c.3.2.5.3.9.3.3 0 .6-.1.8-.3.3-.2.5-.4.6-.8l.2-1-.2-1.2a1.7 1.7 0 0 0-.6-.7c-.2-.2-.5-.3-.8-.3-.4 0-.7 0-.9.2a1.6 1.6 0 0 0-.5.8 3.2 3.2 0 0 0-.2 1.1Zm9 3.5c-.6 0-1.2-.2-1.7-.4a2.8 2.8 0 0 1-1-1.2 4 4 0 0 1-.5-1.8c0-.7.2-1.3.4-1.9a3 3 0 0 1 1.1-1.2 3 3 0 0 1 1.7-.4c.4 0 .8 0 1.2.2l1 .6.6 1c.2.5.2 1 .2 1.6v.4h-5.4v-1h4a1.7 1.7 0 0 0-.3-.8 1.4 1.4 0 0 0-.5-.6 1.5 1.5 0 0 0-.8-.2c-.3 0-.6 0-.8.2a1.6 1.6 0 0 0-.6.7 1.8 1.8 0 0 0-.2.8v1c0 .3 0 .6.2 1 .1.2.3.4.6.5.3.2.5.3.9.3l.6-.1a1.4 1.4 0 0 0 .5-.3l.3-.5 1.5.2a2 2 0 0 1-.6 1c-.2.3-.5.5-1 .7a3.8 3.8 0 0 1-1.3.2Zm6-4v3.9h-1.6V14H67v1a2 2 0 0 1 .8-.9c.3-.2.8-.3 1.2-.3.5 0 1 0 1.3.3l.8.8.2 1.4v4.3h-1.5v-4c0-.5-.2-.9-.4-1.1-.2-.3-.5-.4-1-.4-.2 0-.5 0-.7.2a1.3 1.3 0 0 0-.5.5l-.2.8Zm8.9 3.9V14h1.6v6.7H76Zm.8-7.7a1 1 0 0 1-.7-.2.8.8 0 0 1-.2-.6.8.8 0 0 1 .2-.6 1 1 0 0 1 .7-.3.9.9 0 0 1 .6.3.8.8 0 0 1 .3.6.8.8 0 0 1-.3.6 1 1 0 0 1-.6.2Zm4 3.7v4h-1.6V14h1.5v1a2 2 0 0 1 .8-.9c.3-.2.7-.3 1.2-.3s1 0 1.3.3l.8.8.2 1.4v4.3h-1.5v-4c0-.5-.2-.9-.4-1.1-.2-.3-.5-.4-1-.4-.2 0-.5 0-.7.2a1.3 1.3 0 0 0-.5.5l-.2.8Zm15-2.1a2.3 2.3 0 0 0-.4-.6 2 2 0 0 0-.4-.5 1.8 1.8 0 0 0-.6-.3 2.5 2.5 0 0 0-.8-.1c-.5 0-.9 0-1.3.3-.3.3-.6.6-.8 1.1a4 4 0 0 0-.4 1.7c0 .7.1 1.2.4 1.7.2.5.5.8.8 1 .4.3.9.4 1.4.4.4 0 .8 0 1.1-.2.4-.2.6-.5.8-.8.2-.3.3-.7.3-1.1h.3-2.4V16h3.6v1c0 .8-.1 1.5-.5 2a3.3 3.3 0 0 1-1.3 1.3c-.6.3-1.2.5-2 .5s-1.5-.2-2.1-.6a3.8 3.8 0 0 1-1.5-1.6 6.4 6.4 0 0 1-.2-4.4 4.2 4.2 0 0 1 .9-1.4c.4-.4.8-.7 1.3-.9a4.1 4.1 0 0 1 1.6-.3l1.4.2 1.1.7a3.3 3.3 0 0 1 1.3 2h-1.7Zm3.5 6V14h1.6v6.7h-1.6Zm.8-7.6a1 1 0 0 1-.6-.2.8.8 0 0 1-.3-.6.8.8 0 0 1 .3-.6 1 1 0 0 1 .6-.3c.3 0 .5.1.7.3a.8.8 0 0 1 .2.6.8.8 0 0 1-.2.6 1 1 0 0 1-.7.2Zm5.8 1v1.2H102V14h3.9Zm-3-1.6h1.7V19l.3.3h.4a2 2 0 0 0 .4 0l.3 1.2h-.4a3 3 0 0 1-.5.1 2.6 2.6 0 0 1-1.1-.1 1.7 1.7 0 0 1-.8-.6l-.2-1v-6.6Zm4.3 10.8V14h1.5v1h.1l.4-.4c.1-.2.3-.4.6-.5a2 2 0 0 1 1-.2 2.5 2.5 0 0 1 2.3 1.5c.3.6.4 1.2.4 2 0 .7-.1 1.3-.4 1.8-.2.5-.5.9-1 1.2a2.5 2.5 0 0 1-1.4.4c-.3 0-.7 0-1-.2a2 2 0 0 1-.5-.5 3 3 0 0 1-.4-.5v3.6h-1.6Zm1.5-5.9c0 .4 0 .8.2 1.2.1.3.3.5.6.7.2.2.5.3.8.3.4 0 .6-.1.9-.3.2-.2.4-.4.5-.8l.2-1c0-.5 0-.9-.2-1.2a1.7 1.7 0 0 0-.5-.7c-.3-.2-.5-.3-.9-.3-.3 0-.6 0-.9.2a1.6 1.6 0 0 0-.5.8 3.2 3.2 0 0 0-.2 1.1Zm9 3.5c-.6 0-1.2-.2-1.6-.4a3 3 0 0 1-1.2-1.2c-.2-.6-.3-1.2-.3-1.9s0-1.3.3-1.8a3 3 0 0 1 1.2-1.2c.4-.3 1-.4 1.7-.4.6 0 1.2.1 1.7.4.4.3.8.7 1 1.2.3.5.5 1.2.5 1.8s-.2 1.3-.4 1.9a2.9 2.9 0 0 1-1.1 1.2c-.5.2-1 .4-1.7.4Zm0-1.3c.4 0 .7 0 1-.3.2-.2.4-.4.5-.8l.2-1-.2-1.2a1.8 1.8 0 0 0-.5-.8c-.3-.2-.6-.3-1-.3-.3 0-.6.1-.8.3a1.8 1.8 0 0 0-.6.8l-.1 1.1.1 1.1c.1.4.3.6.6.8.2.2.5.3.9.3Zm7 1.3a2.5 2.5 0 0 1-1.3-.4 3 3 0 0 1-1-1.2c-.3-.5-.4-1.1-.4-1.9 0-.7.1-1.3.4-1.9.2-.5.6-.9 1-1.1a2.6 2.6 0 0 1 1.4-.4c.4 0 .7 0 1 .2l.5.5.4.5v-3.4h1.6v9h-1.5v-1.1h-.1a2.7 2.7 0 0 1-.4.5 2 2 0 0 1-.6.5 2 2 0 0 1-1 .2Zm.5-1.3.9-.3.5-.7.2-1.2a3.1 3.1 0 0 0-.2-1.1 1.6 1.6 0 0 0-.5-.8l-.9-.2c-.3 0-.6 0-.9.3a1.7 1.7 0 0 0-.5.7l-.2 1.1c0 .4 0 .8.2 1.1.1.4.3.6.5.8.3.2.6.3 1 .3Z"/><path fill="#fff" fill-rule="evenodd" d="M18.2 8.7c.5.8.2 1.7-.6 2.2L13 13.6a.4.4 0 0 0-.2.3v4.2a.4.4 0 0 0 .2.4l3.8 2.1a.4.4 0 0 0 .4 0l3.7-2.1a.4.4 0 0 0 .2-.4v-2.6l-3.4 2c-.7.3-1.7 0-2.1-.7a1.6 1.6 0 0 1 .6-2.1l4.8-2.8c1.4-.8 3.2.3 3.2 2v4.6a3 3 0 0 1-1.5 2.6l-4.3 2.4a3 3 0 0 1-3 0l-4.2-2.4a3 3 0 0 1-1.5-2.6v-4.9A3 3 0 0 1 11 11l5-3a1.6 1.6 0 0 1 2.1.6Z" clip-rule="evenodd"/><defs><linearGradient id="a" x1="106.9" x2="102.6" y1="4.8" y2="37.3" gradientUnits="userSpaceOnUse"><stop stop-color="#FFB45B"/><stop offset="1" stop-color="#FF8A00"/></linearGradient></defs></svg>