<?xml version="1.0" encoding="iso-8859-1"?>
<svg 
	version="1.1" 
	xmlns="http://www.w3.org/2000/svg" 
	xmlns:xlink="http://www.w3.org/1999/xlink"
  viewBox="0 0 100 100"
	id="nberlette"
>
  <title>Nicholas Berlette: Developer</title>
	<style type="text/css">
		path {
			fill: #50c87d;
			stroke: #40a85d;
		}
		@media (prefers-color-scheme: dark) {
			path {
				fill: #70e89d;
				stroke: #70e89d; 
			}
		}

	</style>
	<path d="M1.076,51.047c0-6.744,1.206-13.074,3.62-18.993c2.413-5.917,5.785-11.059,10.116-15.422
		c4.33-4.364,9.455-7.818,15.373-10.364c5.917-2.544,12.413-3.818,19.489-3.818c7.074,0,13.587,1.274,19.539,3.818
		c5.951,2.546,11.074,6,15.373,10.364c4.297,4.364,7.652,9.506,10.066,15.422c2.412,5.918,3.619,12.249,3.619,18.993
		c0,6.744-1.207,13.076-3.619,18.993c-2.414,5.918-5.77,11.059-10.066,15.423c-4.299,4.363-9.422,7.817-15.373,10.364
		c-5.951,2.544-12.465,3.818-19.539,3.818c-7.076,0-13.572-1.274-19.489-3.818c-5.918-2.547-11.043-6.001-15.373-10.364
		c-4.331-4.364-7.703-9.505-10.116-15.423C2.282,64.123,1.076,57.791,1.076,51.047z M49.674,10.78
		c-5.819,0-11.158,1.059-16.018,3.174c-4.86,2.117-9.042,4.993-12.546,8.628c-3.505,3.637-6.232,7.902-8.182,12.794
		c-1.951,4.894-2.926,10.116-2.926,15.67c0,5.555,0.975,10.778,2.926,15.671c1.95,4.894,4.677,9.158,8.182,12.794
		c3.504,3.637,7.687,6.512,12.546,8.629c4.86,2.115,10.199,3.174,16.018,3.174c5.818,0,11.158-1.059,16.017-3.174
		c4.859-2.117,9.041-4.992,12.547-8.629c3.504-3.636,6.23-7.9,8.182-12.794c1.949-4.893,2.926-10.116,2.926-15.671
		c0-5.554-0.977-10.776-2.926-15.67c-1.951-4.893-4.678-9.157-8.182-12.794c-3.506-3.635-7.688-6.512-12.547-8.628
		C60.832,11.839,55.492,10.78,49.674,10.78z M59.395,71.28L40.451,43.212V71.28h-8.629V29.327h9.125l18.052,26.679V29.327h8.627
		V71.28H59.395z"></path>
</svg>
