<svg xmlns="http://www.w3.org/2000/svg" xmlns:xlink="http://www.w3.org/1999/xlink" fill="#ffc500" fill-rule="evenodd" color="#004bbbff" color-rendering="optimizeQuality" image-rendering="optimizeQuality" shape-rendering="geometricPrecision" text-rendering="geometricPrecision" viewBox="-10 -10 120 120"><style><![CDATA[@media(prefers-color-scheme:dark){svg#nberlette_seal{color:#005bbb;fill:#ffd500;background-blend-mode:exclusion}}]]></style><g color="inherit"><path id="b" fill="none" fill-opacity="0" d="M.1 49.9c0-6.9 1.2-13.4 3.7-19.5S9.7 19 14.2 14.6c4.4-4.5 9.7-8 15.8-10.6 6.1-2.7 12.8-4 20.1-4 7.3 0 14 1.3 20.1 3.9 6.1 2.6 11.4 6.2 15.8 10.6a48 48 0 0 1 10.3 15.8c2.5 6.1 3.7 12.6 3.7 19.5s-1.2 13.4-3.7 19.5S90.4 80.7 86 85.1c-4.4 4.5-9.7 8-15.8 10.6-6.1 2.6-12.8 3.9-20.1 3.9-7.3 0-13.9-1.3-20-3.9a51 51 0 0 1-15.8-10.6A49.9 49.9 0 0 1 3.9 69.3C1.4 63.4.1 56.9.1 49.9zm50-41.3c-6 0-11.5 1.1-16.5 3.3-5 2.2-9.3 5.1-12.9 8.9-3.6 3.7-6.4 8.1-8.4 13.1s-3 10.4-3 16.1c0 5.7 1 11.1 3 16.1 2 5 4.8 9.4 8.4 13.1 3.6 3.7 7.9 6.7 12.9 8.9s10.5 3.3 16.5 3.3 11.5-1.1 16.5-3.3c5-2.2 9.3-5.1 12.9-8.9 3.6-3.7 6.4-8.1 8.4-13.1s3-10.4 3-16.1c0-5.7-1-11.1-3-16.1-2-5-4.8-9.4-8.4-13.1-3.6-3.7-7.9-6.7-12.9-8.9C61.5 9.6 56 8.6 50.1 8.6zM60.5 70 41 41.2V70h-9V27h9.4L60 54.3V27h9v43h-8.5z"/><path fill="currentColor" d="M-571-373H662v822H-571z" clip-path="url(#a)"/><path fill="inherit" d="M-571 48H662v411H-571z" clip-path="url(#a)"/><clipPath id="a"><use xlink:href="#b" overflow="visible"/></clipPath></g></svg>
