<svg xmlns="http://www.w3.org/2000/svg" width="147" height="32" viewBox="0 0 147 32">
  <g fill="none" fill-rule="evenodd">
    <rect width="147" height="32" fill="#7056BF" rx="4"/>
    <g fill="#FFF">
      <path d="M24.82 11.22 19.1 8.25a2.57 2.57 0 0 0-2.2 0l-5.72 2.97A2.25 2.25 0 0 0 10 13.1v5.94c0 .73.5 1.53 1.18 1.88l2.86 1.48a1 1 0 0 0 .92-1.78l-2.85-1.47-.11-.11v-5.9a.37.37 0 0 1 .1-.15l5.72-2.96a.67.67 0 0 1 .36 0l5.71 2.96c.04.02.1.1.11.11V19a.36.36 0 0 1-.1.15l-2.86 1.48a1 1 0 0 0 .92 1.77l2.86-1.48A2.25 2.25 0 0 0 26 19.03V13.1c0-.73-.5-1.53-1.18-1.88"/>
      <path d="M21.7 17.7a1 1 0 0 0 0-1.4l-3-3a1 1 0 0 0-1.42 0l-2.99 3a1 1 0 1 0 1.42 1.4L17 16.42V23a1 1 0 1 0 2 0v-6.59l1.3 1.3a1 1 0 0 0 1.4 0"/>
    </g>
    <path fill="#B7A7D5" d="M81.4 21.1c.34 0 .77-.05.97-.09v-.92c-.18.05-.46.1-.7.1-.84 0-1.07-.37-1.07-1.1v-4.03h1.78v-.92H80.6v-2.45h-1.12v2.45h-1.2v.92h1.2v4.28c0 1.2.47 1.75 1.91 1.75Zm5.3.04c1.67 0 3.18-1.22 3.18-3.57 0-2.37-1.5-3.58-3.18-3.58-1.7 0-3.2 1.21-3.2 3.58 0 2.35 1.52 3.57 3.2 3.57Zm0-.95c-1.4 0-2.07-1.17-2.07-2.62 0-1.55.75-2.62 2.07-2.62 1.36 0 2.05 1.19 2.05 2.62 0 1.57-.75 2.62-2.05 2.62Zm8 .81h1.15v-4.54h4.95V21h1.15v-9.62h-1.15v4.03h-4.95v-4.03H94.7V21Zm12.13.14a3.2 3.2 0 0 0 2.8-1.45l-.65-.58c-.52.72-1.08 1.12-2.07 1.12-1.13 0-2.03-.83-2.06-2.38h4.84v-.23c0-2.48-1.23-3.63-2.86-3.63-1.44 0-3.1 1.08-3.1 3.58 0 2.39 1.48 3.57 3.1 3.57Zm-1.96-4.16c.16-1.41 1.03-2.05 1.95-2.05 1.13 0 1.72.83 1.8 2.05h-3.75ZM111.3 21h1.12v-4.43a2.63 2.63 0 0 1 2.74-1.54l.08-1.04h-.14c-1.34 0-2.15.63-2.65 1.42h-.03v-1.27h-1.12V21Zm8.01.14c1.68 0 3.19-1.22 3.19-3.57 0-2.37-1.51-3.58-3.19-3.58-1.69 0-3.2 1.21-3.2 3.58 0 2.35 1.52 3.57 3.2 3.57Zm0-.95c-1.39 0-2.07-1.17-2.07-2.62 0-1.55.76-2.62 2.07-2.62 1.37 0 2.06 1.19 2.06 2.62 0 1.57-.76 2.62-2.06 2.62Zm4.77.81h1.12v-2.1l1.37-1.47 2.02 3.57h1.2l-2.5-4.4 2.25-2.46h-1.27l-3.07 3.43v-6.19h-1.12V21Zm8.99.13c1.11 0 1.97-.57 2.57-1.16V21h1.13v-6.86h-1.13v4.95c-.72.68-1.4 1.1-2.22 1.1-.88 0-1.26-.43-1.26-1.34v-4.71h-1.12v4.95c0 1.3.71 2.04 2.03 2.04Z"/>
    <path fill="#FFF" d="M34.18 21h2.54c3.05 0 4.85-1.57 4.85-4.84 0-3.22-1.76-4.78-4.85-4.78h-2.54V21Zm1.15-1.03v-7.54h1.5c2.34 0 3.6 1.15 3.6 3.73 0 2.68-1.24 3.81-3.57 3.81h-1.53ZM46 21.14a3.2 3.2 0 0 0 2.8-1.45l-.65-.58c-.52.72-1.08 1.12-2.07 1.12-1.13 0-2.03-.83-2.07-2.38h4.85v-.23c0-2.48-1.23-3.63-2.86-3.63-1.44 0-3.1 1.08-3.1 3.58 0 2.39 1.48 3.57 3.1 3.57Zm-1.96-4.16c.15-1.41 1.02-2.05 1.95-2.05 1.13 0 1.71.83 1.8 2.05h-3.75Zm6.42 6.62h1.12v-3.48c.58.6 1.3.98 2.14.98 1.68 0 2.91-1.15 2.91-3.55 0-2.39-1.22-3.56-2.8-3.56-1.02 0-1.73.52-2.25 1.1v-.95h-1.12v9.46Zm3.1-3.4c-.72 0-1.39-.37-1.98-1.05v-3.14c.57-.63 1.2-1.06 2-1.06 1.1 0 1.94.86 1.94 2.62 0 1.82-.76 2.62-1.95 2.62Zm4.76.8h1.12v-9.62h-1.12V21Zm5.98.14c1.68 0 3.19-1.22 3.19-3.57 0-2.37-1.5-3.58-3.19-3.58s-3.2 1.21-3.2 3.58c0 2.35 1.53 3.57 3.2 3.57Zm0-.95c-1.39 0-2.06-1.17-2.06-2.62 0-1.55.75-2.62 2.06-2.62 1.37 0 2.06 1.19 2.06 2.62 0 1.57-.76 2.62-2.06 2.62Zm5.17 3.45c1.33 0 1.87-.65 2.34-1.86l2.93-7.64h-1.13l-2.01 5.55h-.03l-2.01-5.55h-1.19l2.66 6.9-.27.68c-.27.67-.6.97-1.3.97-.49 0-.83-.07-1.02-.12l-.26.9c.3.1.67.17 1.28.17Z"/>
  </g>
</svg>
