<svg xmlns="http://www.w3.org/2000/svg" width="146" height="32" fill="none" viewBox="0 0 146 32"><rect width="146" height="32" fill="#15847D" rx="6"/><path fill="#fff" d="M31.01 21v-9.95h2.94c.88 0 1.66.2 2.34.58a4 4 0 0 1 1.59 1.67c.37.72.56 1.55.56 2.48v.5c0 .94-.2 1.77-.57 2.48a4 4 0 0 1-1.6 1.66 4.8 4.8 0 0 1-2.4.58h-2.86Zm1.73-8.56v7.18h1.13c.9 0 1.6-.28 2.08-.85.5-.57.74-1.38.75-2.45v-.55a3.8 3.8 0 0 0-.7-2.47c-.47-.57-1.16-.86-2.05-.86h-1.2Zm10.71 8.7c-1.05 0-1.9-.33-2.56-1a3.63 3.63 0 0 1-.98-2.65v-.2c0-.74.15-1.4.43-1.98a3.17 3.17 0 0 1 2.93-1.85c1 0 1.78.33 2.32.97.56.64.83 1.55.83 2.73v.67H41.6c.05.6.25 1.1.6 1.45.37.35.82.53 1.36.53.76 0 1.38-.3 1.86-.92l.9.85a3 3 0 0 1-1.2 1.03c-.49.25-1.04.37-1.66.37Zm-.2-6.34c-.45 0-.82.16-1.1.48a2.5 2.5 0 0 0-.53 1.33h3.16v-.12a2 2 0 0 0-.44-1.26 1.38 1.38 0 0 0-1.08-.43Zm11.15 2.58c0 1.14-.27 2.05-.79 2.74a2.5 2.5 0 0 1-2.09 1.02c-.8 0-1.46-.27-1.95-.8v3.5h-1.66V13.6h1.53l.07.76c.5-.6 1.15-.9 2-.9.9 0 1.6.34 2.11 1.02.52.67.77 1.6.77 2.8v.1Zm-1.66-.15a3.1 3.1 0 0 0-.44-1.75c-.3-.44-.72-.65-1.26-.65-.68 0-1.17.28-1.47.84v3.28c.3.57.8.86 1.48.86.53 0 .94-.21 1.24-.64.3-.42.45-1.07.45-1.94ZM57.77 21h-1.66V10.5h1.66V21Zm1.71-3.77c0-.72.14-1.37.43-1.95.28-.58.69-1.03 1.2-1.34a3.39 3.39 0 0 1 1.8-.47c1 0 1.8.32 2.43.96.62.64.96 1.5 1 2.56l.01.39c0 .73-.14 1.38-.42 1.95a3.08 3.08 0 0 1-1.2 1.34c-.52.3-1.12.47-1.8.47a3.22 3.22 0 0 1-2.52-1.04 4.01 4.01 0 0 1-.93-2.78v-.09Zm1.66.15a3 3 0 0 0 .47 1.79c.31.43.75.64 1.31.64s1-.22 1.3-.66a3.2 3.2 0 0 0 .48-1.92c0-.74-.16-1.34-.49-1.77a1.53 1.53 0 0 0-1.3-.66c-.54 0-.97.22-1.3.65a3.21 3.21 0 0 0-.47 1.93Zm9.3 1.24 1.5-5.02h1.77l-2.94 8.52c-.45 1.25-1.22 1.87-2.3 1.87-.24 0-.5-.04-.8-.13v-1.28l.32.02c.42 0 .73-.08.94-.23.22-.15.39-.4.5-.77l.25-.63-2.6-7.37h1.8l1.56 5.02Zm10.2-6.82v1.8h1.3v1.23h-1.3v4.13c0 .29.05.5.16.62.12.12.32.18.6.18.2 0 .39-.02.59-.07v1.29c-.38.1-.75.16-1.1.16-1.27 0-1.91-.7-1.91-2.12v-4.19h-1.22V13.6h1.22v-1.8h1.66Zm2.26 5.43c0-.72.15-1.37.43-1.95.3-.58.7-1.03 1.21-1.34a3.39 3.39 0 0 1 1.8-.47c1 0 1.8.32 2.42.96.63.64.96 1.5 1.01 2.56l.01.39c0 .73-.14 1.38-.42 1.95a3.08 3.08 0 0 1-1.2 1.34c-.53.3-1.13.47-1.81.47a3.22 3.22 0 0 1-2.51-1.04 4.02 4.02 0 0 1-.94-2.78v-.09Zm1.66.15a3 3 0 0 0 .48 1.79c.31.43.75.64 1.3.64.57 0 1-.22 1.31-.66a3.2 3.2 0 0 0 .48-1.92c0-.74-.17-1.34-.49-1.77a1.53 1.53 0 0 0-1.3-.66c-.55 0-.98.22-1.3.65a3.21 3.21 0 0 0-.48 1.93ZM103.13 21h-1.73l-4.44-7.06V21h-1.73v-9.95h1.73l4.45 7.09v-7.1h1.72V21Zm5.39.14a3.64 3.64 0 0 1-2.65-1 3.55 3.55 0 0 1-1.02-2.66v-.2c0-.73.15-1.4.43-1.98.29-.59.7-1.04 1.22-1.35a3.42 3.42 0 0 1 1.8-.48c1.02 0 1.81.32 2.39.95.58.64.88 1.55.88 2.72v.8h-4.71c.06.49.25.87.57 1.17.32.29.73.43 1.22.43.76 0 1.36-.27 1.79-.82l.97 1.08c-.3.42-.7.75-1.2.99-.51.23-1.07.35-1.69.35Zm-.22-6.07c-.4 0-.71.13-.96.4-.24.26-.4.64-.46 1.13h2.74v-.16c0-.44-.12-.77-.35-1.01a1.28 1.28 0 0 0-.97-.36Zm6.96-3.28v1.81h1.26v1.45h-1.26v3.7c0 .27.05.46.16.58.1.12.3.18.6.18.22 0 .41-.02.58-.05v1.5c-.39.12-.79.18-1.2.18-1.38 0-2.09-.7-2.12-2.1v-3.99h-1.08V13.6h1.08v-1.8h1.98ZM119.9 21h-1.97V10.5h1.98V21Zm3.93 0h-1.98v-7.4h1.98V21Zm-2.1-9.31c0-.3.1-.54.3-.73.2-.2.46-.29.8-.29s.61.1.81.29c.2.19.3.43.3.73s-.1.55-.3.74c-.2.19-.47.28-.8.28-.34 0-.6-.1-.81-.28a.98.98 0 0 1-.3-.74ZM126.2 21v-5.95h-1.1V13.6h1.1v-.63c0-.82.24-1.47.71-1.92.48-.46 1.15-.7 2-.7.28 0 .61.05 1.01.14l-.02 1.53a2.51 2.51 0 0 0-.6-.06c-.75 0-1.12.35-1.12 1.05v.6h1.47v1.44h-1.47V21h-1.98Zm7.44-2.8 1.37-4.6h2.12l-2.98 8.55-.16.39c-.44.96-1.17 1.45-2.19 1.45a3.1 3.1 0 0 1-.87-.13v-1.5h.3c.37 0 .65-.05.83-.16.19-.12.33-.3.44-.57l.23-.61-2.59-7.42h2.13l1.37 4.6ZM12.76 11.24a797.57 797.57 0 0 1 2.18.9.84.84 0 0 1 .77-.14h.03l.02-.02 1.65-2.57-.5-.5c-.32-.32-.48-.48-.67-.54a.8.8 0 0 0-.48 0c-.19.06-.35.22-.67.54l-2.33 2.33Zm-.23 4.96-1.93-2.8 1.8-1.8 1.32.56h.01l.92.4.03.01v.03a.8.8 0 0 0 .2.73c.02.01 0 .03 0 .04l-.01.01-1.82 2.83-.02.02h-.04a.91.91 0 0 0-.21-.03l-.21.02h-.02l-.02-.02Zm7.1-2.4a.69.69 0 0 0-.2-.15c-.02-.01-.02-.03-.02-.04l.3-1.9 1.46 1.46-1.5.64h-.04Zm.32.41 1.59-.67 1.55 1.55c.32.32.48.48.54.67l.02.08-3.7-1.57c-.02 0-.04-.01-.04-.03l.03-.03Zm3.64 2.13-3.86-1.63h-.05a.7.7 0 0 1-.47.27l-.02.04v.01l-.43 2.61v.04c.16.12.25.29.27.48 0 .02.02.02.04.03h.01l2.26.47 1.75-1.75c.26-.26.42-.42.5-.57Zm-4.67 2.3 2.02.42-2.87 2.87.49-3.02v-.01l.02-.02h.01c.1-.05.2-.12.28-.21l.03-.03h.02Zm-1.46 3.9c.11-.7.54-3.32.6-3.62v-.05a.7.7 0 0 1-.42-.49l-.03-.01-3.97-.82h-.03l-.02.02-.01.02-.03.05-.01.02v.02l.01.01 3.58 5.18.33-.33ZM13.18 18l3.6 5.22c-.24.24-.38.36-.54.41a.8.8 0 0 1-.48 0c-.19-.06-.35-.22-.67-.54l-3.6-3.6.94-1.46.02-.01h.03a.94.94 0 0 0 .66-.04h.03l.01.02Zm-2.03 1.15.9-1.4v-.02a1.17 1.17 0 0 1-.06-.08c0-.01-.01-.03-.03-.03h-.01l-1.63.7.83.83Zm.54-1.93-1.74.73-1.04-1.04c-.18-.18-.3-.3-.4-.42l3.18.66h.01c.02 0 .04.01.04.03 0 .02-.02.03-.04.04h-.01Zm-3.36-1.26 3.58.75h.02l.02-.03c.04-.07.1-.15.16-.2a885.15 885.15 0 0 1-1.86-2.72L8.9 15.08c-.32.32-.48.48-.54.67a.8.8 0 0 0-.04.2Zm7.81-3.67 1.63-2.52 1.52 1.52-.36 2.28v.02l-.03.02a.73.73 0 0 0-.22.11l-.02.01h-.02l-2.33-.99-.03-.03a.88.88 0 0 0-.12-.36c-.02-.02-.03-.04-.02-.06Zm.06.91h-.05v.02a.81.81 0 0 1-.8.35h-.02c-.02 0-.03.02-.04.03l-1.8 2.78v.01c-.01.02-.02.03-.01.05h.02l4.86-2.07c.02 0 .03-.01.03-.03v-.06c0-.03 0-.07.02-.1v-.02l-.04-.03-2.18-.92ZM13.73 17l-.04-.12 4.92-2.1.01.01.07.07h.01c.01 0 .02.01.02.03l-.42 2.59v.01c0 .02 0 .04-.02.04a.7.7 0 0 0-.55.34l-.03.03h-.02l-3.92-.81-.03-.1Z"/></svg>