<svg xmlns="http://www.w3.org/2000/svg" width="146" height="32" fill="none" viewBox="0 0 183 40"><path fill="url(#a)" d="M0 6a6 6 0 0 1 6-6h171a6 6 0 0 1 6 6v28a6 6 0 0 1-6 6H6a6 6 0 0 1-6-6V6Z"/><path fill="#fff" d="M50.5 25c3.1 0 5-2 5-5.1 0-3.2-1.9-5-5-5H47V25h3.6ZM49 23.2v-6.5h1.4c2 0 3 1 3 3.2 0 2.3-1 3.3-3 3.3H49Zm11.5 2c1.9 0 3.2-1 3.5-2.4l-2-.1c-.2.6-.8.9-1.5.9-1 0-1.7-.7-1.7-1.9H64v-.6c0-2.6-1.6-3.8-3.6-3.8-2.2 0-3.7 1.6-3.7 4 0 2.3 1.5 3.9 3.8 3.9Zm-1.7-4.8c0-.9.7-1.6 1.7-1.6.9 0 1.5.7 1.5 1.6h-3.2Zm6.6 7.5h2.1v-4.1c.4.6 1 1.3 2.2 1.3 1.8 0 3.1-1.4 3.1-4 0-2.5-1.4-3.8-3-3.8-1.3 0-2 .7-2.2 1.3h-.1v-1.2h-2.1v10.5Zm2-6.7c0-1.4.6-2.3 1.7-2.3 1 0 1.6 1 1.6 2.3s-.6 2.2-1.6 2.2-1.6-.9-1.6-2.2Zm9-6.4h-2.1V25h2V14.8Zm5.1 10.3c2.3 0 3.8-1.5 3.8-3.9s-1.5-4-3.8-4-3.7 1.6-3.7 4 1.4 4 3.7 4Zm0-1.6c-1 0-1.6-1-1.6-2.3 0-1.3.6-2.3 1.6-2.3s1.6 1 1.6 2.3c0 1.3-.5 2.3-1.6 2.3Zm6.2 4.4c1.6 0 2.4-.8 2.9-2l3-8.5h-2.3L89.7 23h-.1L88 17.4h-2.2l2.7 7.8v.3c-.4.8-.9.8-1.6.6l-.5 1.5c.3.2.8.3 1.3.3Zm13.6-2.7c2.3 0 3.8-1.6 3.8-4s-1.5-4-3.8-4-3.8 1.6-3.8 4 1.5 4 3.8 4Zm0-1.7c-1 0-1.6-1-1.6-2.3 0-1.3.5-2.3 1.6-2.3 1 0 1.6 1 1.6 2.3 0 1.3-.6 2.3-1.6 2.3Zm7.3-3c0-.9.5-1.5 1.4-1.5s1.4.6 1.4 1.5V25h2v-4.9c0-1.7-1-2.8-2.6-2.8-1.1 0-2 .5-2.3 1.4v-1.3h-2V25h2v-4.4Zm9.8 4.5h2.2v-3.6h1.5l2 3.6h2.4l-2.2-4a3 3 0 0 0 1.8-2.9c0-2-1.3-3.3-3.7-3.3h-4V25Zm2.2-5.3v-3.1h1.4c1.3 0 1.9.5 1.9 1.5s-.6 1.6-1.9 1.6h-1.4Zm9.1 5.4c1.2 0 1.9-.5 2.3-1.2V25h2v-5.2c0-1.8-1.5-2.5-3.2-2.5-1.8 0-3 .8-3.3 2.2l2 .2c0-.5.5-.9 1.3-.9.7 0 1.1.4 1.1 1 0 .5-.5.6-1.8.7-1.5.2-2.9.7-2.9 2.4 0 1.5 1 2.2 2.5 2.2Zm.6-1.4c-.6 0-1-.3-1-.9 0-.6.4-.9 1.2-1a5.1 5.1 0 0 0 1.4-.3v.8c0 .8-.6 1.4-1.6 1.4Zm5.4 1.3h2.1v-7.6h-2.1V25Zm1-8.6c.7 0 1.2-.5 1.2-1 0-.7-.5-1.2-1.1-1.2-.7 0-1.2.5-1.2 1.1 0 .6.5 1 1.1 1Zm5-1.6h-2.2V25h2.1V14.8Zm3.1 10.2h2.3l1.3-4.8 1.4 4.8h2.2l2-7.6h-2l-1.2 5-1.3-5h-2.1l-1.3 5-1.2-5h-2.2l2.1 7.6Zm12.6.1c1.1 0 1.9-.5 2.2-1.2V25h2.1v-5.2c0-1.8-1.5-2.5-3.2-2.5-1.9 0-3 .8-3.4 2.2l2 .2c.1-.5.6-.9 1.3-.9.8 0 1.2.4 1.2 1 0 .5-.5.6-1.9.7-1.5.2-2.8.7-2.8 2.4 0 1.5 1 2.2 2.5 2.2Zm.6-1.4c-.7 0-1.1-.3-1.1-.9 0-.6.5-.9 1.2-1a5 5 0 0 0 1.5-.3v.8c0 .8-.7 1.4-1.6 1.4Zm6.4 4.2c1.5 0 2.4-.8 2.8-2l3-8.5H168l-1.7 5.6-1.6-5.6h-2.2l2.7 7.8-.1.3c-.3.8-.8.8-1.6.6l-.5 1.5c.3.2.8.3 1.4.3Z"/><path fill="#fff" fill-rule="evenodd" d="M13.6 14.1a12 12 0 0 1 21.8 9.7H12.6a11.9 11.9 0 0 1-.4-2l.2 1H29c1 0 1.9-.5 2.3-1.4.5-1 .3-2-.4-3a16.2 16.2 0 0 0-2.7-2.9 8.5 8.5 0 0 0-5-1.3h-.5l-4.4-.1h-4.8ZM12 19.5l.1-1.2h9.6V17h-9.3l-.2 1a9 9 0 0 1 .8-2.8h5.3a100.5 100.5 0 0 1 5.2 0c2 .1 3.7.2 6.5 3.8l.2.4H12Zm1.5-5.3-.5 1.1.5-1.1Zm0 0ZM12 20.6h18.4c-.2.5-.6 1-1.3 1H12a9.7 9.7 0 0 1 0-1Zm.6 3 .5 1.3h21.8a12 12 0 0 1-22.3-1.2Zm-.6-4v.7-.5Z" clip-rule="evenodd"/><path fill="url(#b)" fill-opacity=".1" fill-rule="evenodd" d="M13.6 14.1a12 12 0 0 1 21.8 9.7H12.6a11.9 11.9 0 0 1-.4-2l.2 1H29c1 0 1.9-.5 2.3-1.4.5-1 .3-2-.4-3a16.2 16.2 0 0 0-2.7-2.9 8.5 8.5 0 0 0-5-1.3h-.5l-4.4-.1h-4.8ZM12 19.5l.1-1.2h9.6V17h-9.3l-.2 1a9 9 0 0 1 .8-2.8h5.3a100.5 100.5 0 0 1 5.2 0c2 .1 3.7.2 6.5 3.8l.2.4H12Zm1.5-5.3-.5 1.1.5-1.1Zm0 0ZM12 20.6h18.4c-.2.5-.6 1-1.3 1H12a9.7 9.7 0 0 1 0-1Zm.6 3 .5 1.3h21.8a12 12 0 0 1-22.3-1.2Zm-.6-4v.7-.5Z" clip-rule="evenodd"/><defs><linearGradient id="a" x1="181" x2="26" y1="0" y2="37.5" gradientUnits="userSpaceOnUse"><stop stop-color="#B63BCE"/><stop offset="1" stop-color="#5016A1"/></linearGradient><linearGradient id="b" x1="19.5" x2="19.5" y1="32" y2="8" gradientUnits="userSpaceOnUse"><stop stop-color="#5B1BA7"/><stop offset="1" stop-color="#fff" stop-opacity="0"/></linearGradient></defs></svg>
