<svg xmlns="http://www.w3.org/2000/svg" width="92" height="32" fill="none" fill-rule="evenodd" viewBox="0 0 92 32"><path fill="#1374EF" fill-rule="nonzero" d="M0 4a4 4 0 0 1 3.9-4h84.2A4 4 0 0 1 92 4v24a4 4 0 0 1-3.9 4H3.9A4 4 0 0 1 0 28V4z"/><path fill="#1269D3" d="M32 32V0h1v32z"/><path fill="#FFF" d="m16 10-.4.8-5.2 9.5-.4.7h12l-.4-.7-5.2-9.5-.4-.8zm51.6 10.6h-1.3v-9.3h1.3v9.3zm-26.2 0v-8.9h3.2c2.7 0 4.3 1.7 4.3 4.5 0 2.7-1.6 4.4-4.3 4.4h-3.3zm3-7.7h-1.6v6.5h1.7c1.9 0 3-1.2 3-3.2s-1.2-3.3-3-3.3zm9.1 6.7c.8 0 1.4-.3 1.6-.8h1.3c-.2 1.2-1.4 2-3 2-1.9 0-3-1.4-3-3.5s1.1-3.5 3-3.5c2 0 3.1 1.3 3.1 3.4v.4h-4.8c0 1.3.7 2 1.8 2zm1.7-3c0-1-.7-1.7-1.7-1.7s-1.7.7-1.8 1.8h3.5zm6.5-2.8a2.4 2.4 0 0 0-2.1 1.2h-.1v-1h-1.3v8.8h1.3v-3.2h.1c.4.7 1.2 1.1 2.1 1.1 1.8 0 2.9-1.3 2.9-3.4 0-2.1-1.1-3.5-2.9-3.5zm-.4 5.8c-1.1 0-1.8-1-1.8-2.3 0-1.5.7-2.4 1.8-2.4 1.2 0 1.9 1 1.9 2.4s-.7 2.3-1.9 2.3zm11.2 1.1c2 0 3.3-1.3 3.3-3.4 0-2.2-1.3-3.5-3.3-3.5-2 0-3.2 1.3-3.2 3.5s1.2 3.4 3.2 3.4zm0-1.1c-1.1 0-1.8-.9-1.8-2.3s.7-2.4 1.8-2.4c1.2 0 1.9.9 1.9 2.4s-.7 2.3-1.9 2.3zm8 1.3c-.6 1.6-1.3 2.1-2.7 2.1h-.5v-1.1h.4c.6 0 1-.2 1.2-1l.1-.3-2.5-6.7H78l1.7 5.4h.1l1.8-5.4H83l-2.6 7z"/></svg>
