<svg xmlns="http://www.w3.org/2000/svg" width="184" height="39" fill="none"><rect width="184" height="39" fill="#404242" rx="5"/><path fill="#fff" d="M31.2 25V13.6h3.3c1 0 2 .2 2.7.7a4.6 4.6 0 0 1 1.8 1.9c.4.8.6 1.8.6 2.8v.6c0 1-.2 2-.6 2.8a4.5 4.5 0 0 1-1.8 2 6 6 0 0 1-2.8.6h-3.2zm2-9.8v8.2h1.2c1 0 1.9-.3 2.4-1 .6-.6.8-1.5.9-2.7V19c0-1.2-.3-2.2-.8-2.8a3 3 0 0 0-2.4-1h-1.4zm12 10a4 4 0 0 1-3-1.2 4.1 4.1 0 0 1-1.1-3v-.2c0-.9.2-1.6.5-2.3.3-.7.8-1.2 1.4-1.6a3.6 3.6 0 0 1 2-.5c1 0 2 .4 2.6 1 .6.8 1 1.9 1 3.2v.8H43c0 .7.3 1.2.7 1.6.4.4 1 .6 1.6.6.8 0 1.5-.3 2-1l1.1 1a3.4 3.4 0 0 1-1.4 1.1c-.5.3-1.1.5-1.9.5zm-.3-7.3c-.5 0-1 .2-1.2.6-.4.3-.6.8-.7 1.5h3.7v-.2c0-.6-.2-1-.5-1.4-.3-.3-.8-.5-1.3-.5zm12.5 3a5 5 0 0 1-.9 3c-.6.9-1.4 1.3-2.4 1.3-.9 0-1.6-.3-2.2-1v4H50V16.5h1.8v1c.6-.8 1.4-1.1 2.3-1.1 1 0 1.9.4 2.4 1.1.6.8 1 1.9 1 3.2v.2zm-1.9-.2c0-.8-.1-1.5-.5-2-.3-.5-.8-.8-1.4-.8-.8 0-1.3.4-1.7 1v3.8c.4.6 1 1 1.7 1 .6 0 1-.3 1.4-.8.4-.5.5-1.2.5-2.2zm5.6 4.3h-2V13h2v12zm1.7-4.3c0-.8.1-1.6.5-2.2.3-.7.8-1.2 1.3-1.6a4.6 4.6 0 0 1 4.9.5 5 5 0 0 1 1.1 3v.5a5 5 0 0 1-.5 2.2 3.5 3.5 0 0 1-1.3 1.5c-.6.4-1.3.6-2 .6a4 4 0 0 1-3-1.2c-.7-.8-1-1.9-1-3.2v-.1zm1.9.2c0 .8.2 1.5.5 2 .4.5.9.7 1.5.7s1.1-.2 1.5-.7c.4-.5.5-1.2.5-2.2 0-.9-.1-1.5-.5-2s-.9-.8-1.5-.8-1.1.3-1.5.8a4 4 0 0 0-.5 2.2zM75 22.3l1.7-5.8h2l-3.3 9.8c-.6 1.4-1.4 2.1-2.7 2.1l-.9-.1v-1.5h.4c.5 0 .8 0 1-.2.3-.2.5-.5.6-1l.3-.6-3-8.5h2l1.9 5.8zm16.4.7 1.6-6.5h1.5L92 25h-1l-2-6.4-2 6.4h-1.2l-2.4-8.5h1.4l1.7 6.4 2-6.4h1l2.1 6.5zm6.1 2h-1.4v-8.5h1.4V25zM96 14.3c0-.2 0-.4.2-.6.1-.2.3-.2.6-.2s.5 0 .6.2l.3.6-.3.6-.6.2c-.3 0-.5 0-.6-.2a.8.8 0 0 1-.2-.6zm5.8.2v2h1.6v1.2h-1.6v5.2c0 .3 0 .6.2.8l.7.2h.7V25l-1 .2c-.7 0-1.2-.2-1.6-.6-.3-.4-.4-1-.4-1.7v-5.2h-1.6v-1.2h1.6v-2h1.4zm4.7 3a3 3 0 0 1 2.5-1.1c1.8 0 2.7 1 2.7 3V25h-1.4v-5.6c0-.6-.2-1-.4-1.3-.3-.3-.7-.5-1.3-.5a2 2 0 0 0-1.3.4c-.3.2-.6.6-.8 1v6h-1.4V13h1.4v4.6zm14 4 .3 1.4.3-1.3 2.2-8h1.3l2.2 8 .3 1.3.2-1.5 1.8-7.8h1.5L128 25h-1.4l-2.4-8.3-.1-.9-.2 1-2.4 8.2H120l-2.8-11.4h1.5l1.8 7.8zm11-.8c0-.8 0-1.6.4-2.2.3-.7.8-1.2 1.4-1.6.6-.3 1.2-.5 2-.5 1.1 0 2 .4 2.7 1.2.8.8 1.1 1.8 1.1 3.2a5 5 0 0 1-.5 2.3 3.6 3.6 0 0 1-1.3 1.5c-.6.4-1.3.6-2 .6-1.2 0-2.1-.4-2.8-1.2-.7-.8-1-1.9-1-3.2v-.1zm1.4.2c0 1 .2 1.7.6 2.2.5.6 1 .9 1.8.9a2 2 0 0 0 1.7-.9 4 4 0 0 0 .7-2.4c0-1-.2-1.7-.7-2.3a2 2 0 0 0-1.7-.8 2 2 0 0 0-1.8.8 4 4 0 0 0-.6 2.5zm12.1-3a4.3 4.3 0 0 0-.7-.1c-1 0-1.6.4-2 1.2v6H141v-8.5h1.4v1c.5-.7 1.2-1.1 2-1.1l.7.1v1.3zm3.7 3.2-.9 1V25h-1.4V13h1.4v7.3l.8-1 2.6-2.8h1.8l-3.3 3.6 3.7 4.9h-1.7l-3-4zm9.1 4a4 4 0 0 1-2.8-1c-.7-.8-1-1.8-1-3v-.4c0-.8.1-1.5.4-2.2a3 3 0 0 1 1.4-1.5 3.4 3.4 0 0 1 1.8-.6c1.1 0 2 .4 2.6 1a5 5 0 0 1 1 3.2v.6h-5.8c0 .8.2 1.5.7 2 .5.5 1 .8 1.8.8.5 0 1-.1 1.3-.3l1-.9.8.7a3.6 3.6 0 0 1-3.2 1.7zm-.2-7.5a2 2 0 0 0-1.4.6 3 3 0 0 0-.8 1.8h4.3v-.1c0-.7-.3-1.3-.6-1.7a2 2 0 0 0-1.5-.6zm9.3.2a4.3 4.3 0 0 0-.7 0c-1 0-1.6.4-2 1.2v6H163v-8.5h1.4v1c.5-.7 1.2-1.1 2-1.1l.7.1v1.3zm6.2 5a1 1 0 0 0-.4-1c-.3-.2-.8-.4-1.5-.5l-1.8-.6-1-.8-.2-1c0-.7.2-1.3.8-1.8.6-.5 1.4-.7 2.3-.7 1 0 1.7.2 2.3.7.6.5.9 1.2.9 2H173c0-.5-.1-.8-.5-1-.3-.4-.7-.5-1.2-.5a2 2 0 0 0-1.3.3 1 1 0 0 0-.4 1c0 .3.1.5.4.7.3.2.8.4 1.5.5l1.8.6 1 .8c.2.3.3.7.3 1.2 0 .7-.3 1.3-1 1.8-.5.4-1.3.7-2.3.7-.7 0-1.3-.2-1.8-.4a3 3 0 0 1-1.2-1 2.5 2.5 0 0 1-.4-1.4h1.4c0 .5.2.9.6 1.2.3.2.8.4 1.4.4.6 0 1-.1 1.3-.4.4-.2.5-.5.5-.8z"/><g clip-path="url(#a)"><path fill="url(#b)" d="m12.1 12.2 1.9 3.3-1.7 3.1a1 1 0 0 0 0 1l1.7 3-1.9 3.4a2 2 0 0 1-.8-.8l-3-5.1a2 2 0 0 1 0-2l3-5.1c.2-.4.5-.6.8-.8z"/><path fill="url(#c)" d="M12.3 18.6a1 1 0 0 0 0 1l1.7 3-1.9 3.4a2 2 0 0 1-.8-.8l-3-5.1c-.3-.4 1-1 4-1.5z" opacity=".7"/><path fill="url(#d)" d="m12.3 12.5 1.7 3-.3.5-1.5-2.5c-.4-.7-1-.3-1.9 1.1l.1-.2.9-1.4c.2-.4.5-.6.8-.8l.2.3z" opacity=".5"/><path fill="url(#e)" d="m20.7 13 3 5.1a2 2 0 0 1 0 2l-3 5a2 2 0 0 1-.7.8 2 2 0 0 1-1 .3h-3l3.7-6.6a1 1 0 0 0 0-1L16 12h3a2 2 0 0 1 1.7 1z"/><path fill="url(#f)" d="M18.8 26.1h-3l3.7-6.6a1 1 0 0 0 0-1L15.9 12h.7l3.7 6.5a1 1 0 0 1 0 1L18 23.7c-.7 1.3-.4 2 1 2.4z"/><path fill="url(#g)" d="M13 26.2a2 2 0 0 1-.9-.2l3.7-6.6a.7.7 0 0 0 0-.7l-3.7-6.5.9-.2h3l3.7 6.6a1 1 0 0 1 0 1L16 26.2h-3z"/><path fill="url(#h)" d="M19.5 18.7 15.7 12h.3l3.7 6.6a1 1 0 0 1 0 1L16 26.2h-.3l3.8-6.8a.7.7 0 0 0 0-.7z" opacity=".6"/><path fill="url(#i)" d="m15.8 18.7-3.7-6.5.4-.1 3.6 6.5a1 1 0 0 1 0 1L12.4 26a2 2 0 0 1-.3-.1l3.7-6.6a.7.7 0 0 0 0-.6z" opacity=".6"/></g><defs><linearGradient id="b" x1="11" x2="5" y1="26" y2="16.2" gradientUnits="userSpaceOnUse"><stop stop-color="#EB6F07"/><stop offset="1" stop-color="#FAB743"/></linearGradient><linearGradient id="c" x1="12.9" x2="9.8" y1="24.8" y2="21.5" gradientUnits="userSpaceOnUse"><stop stop-color="#D96504"/><stop offset="1" stop-color="#D96504" stop-opacity="0"/></linearGradient><linearGradient id="d" x1="11.9" x2="13.5" y1="12.5" y2="15.2" gradientUnits="userSpaceOnUse"><stop stop-color="#EB6F07"/><stop offset="1" stop-color="#EB720A" stop-opacity="0"/></linearGradient><linearGradient id="e" x1="20" x2="14.7" y1="26.2" y2="14.8" gradientUnits="userSpaceOnUse"><stop stop-color="#EE6F05"/><stop offset="1" stop-color="#FAB743"/></linearGradient><linearGradient id="f" x1="14.4" x2="23.2" y1="26.2" y2="23.9" gradientUnits="userSpaceOnUse"><stop stop-color="#D96504" stop-opacity=".8"/><stop offset=".5" stop-color="#D96504" stop-opacity=".2"/><stop offset="1" stop-color="#D96504" stop-opacity="0"/></linearGradient><linearGradient id="g" x1="16" x2="10.5" y1="26.2" y2="15" gradientUnits="userSpaceOnUse"><stop stop-color="#FFA95F"/><stop offset="1" stop-color="#FFEBC8"/></linearGradient><linearGradient id="h" x1="16" x2="20.7" y1="12.2" y2="12.9" gradientUnits="userSpaceOnUse"><stop stop-color="#fff" stop-opacity=".5"/><stop offset="1" stop-color="#fff" stop-opacity=".1"/></linearGradient><linearGradient id="i" x1="11.6" x2="17.3" y1="26.7" y2="25.8" gradientUnits="userSpaceOnUse"><stop stop-color="#fff" stop-opacity=".5"/><stop offset="1" stop-color="#fff" stop-opacity=".1"/></linearGradient><clipPath id="a"><path fill="#fff" d="M0 0h16v14.2H0z" transform="translate(8 12)"/></clipPath></defs></svg>